<svg width="20" height="20" viewBox="0 0 20 20" fill="none" xmlns="http://www.w3.org/2000/svg">
<g id="calendar-day" clip-path="url(#clip0_1929_1176)">
<g id="Group">
<path id="Vector" d="M6.66667 10H5C4.08083 10 3.33333 10.7475 3.33333 11.6667V13.3333C3.33333 14.2525 4.08083 15 5 15H6.66667C7.58583 15 8.33333 14.2525 8.33333 13.3333V11.6667C8.33333 10.7475 7.58583 10 6.66667 10ZM5 13.3333V11.6667H6.66667V13.3333H5ZM15.8333 1.66667H15V0.833333C15 0.61232 14.9122 0.400358 14.7559 0.244078C14.5996 0.0877974 14.3877 0 14.1667 0C13.9457 0 13.7337 0.0877974 13.5774 0.244078C13.4211 0.400358 13.3333 0.61232 13.3333 0.833333V1.66667H6.66667V0.833333C6.66667 0.61232 6.57887 0.400358 6.42259 0.244078C6.26631 0.0877974 6.05435 0 5.83333 0C5.61232 0 5.40036 0.0877974 5.24408 0.244078C5.0878 0.400358 5 0.61232 5 0.833333V1.66667H4.16667C1.86917 1.66667 0 3.53583 0 5.83333V15.8333C0 18.1308 1.86917 20 4.16667 20H15.8333C18.1308 20 20 18.1308 20 15.8333V5.83333C20 3.53583 18.1308 1.66667 15.8333 1.66667ZM4.16667 3.33333H15.8333C17.2117 3.33333 18.3333 4.455 18.3333 5.83333V6.66667H1.66667V5.83333C1.66667 4.455 2.78833 3.33333 4.16667 3.33333ZM15.8333 18.3333H4.16667C2.78833 18.3333 1.66667 17.2117 1.66667 15.8333V8.33333H18.3333V15.8333C18.3333 17.2117 17.2117 18.3333 15.8333 18.3333Z" fill="#020617"/>
</g>
</g>
<defs>
<clipPath id="clip0_1929_1176">
<rect width="20" height="20" fill="white"/>
</clipPath>
</defs>
</svg>
