<svg width="20" height="20" viewBox="0 0 20 20" fill="none" xmlns="http://www.w3.org/2000/svg">
<g id="checkbox" clip-path="url(#clip0_1929_1163)">
<g id="Group">
<path id="Vector" d="M15.8333 0H4.16667C3.062 0.00132321 2.00296 0.440735 1.22185 1.22185C0.440735 2.00296 0.00132321 3.062 0 4.16667L0 15.8333C0.00132321 16.938 0.440735 17.997 1.22185 18.7782C2.00296 19.5593 3.062 19.9987 4.16667 20H15.8333C16.938 19.9987 17.997 19.5593 18.7782 18.7782C19.5593 17.997 19.9987 16.938 20 15.8333V4.16667C19.9987 3.062 19.5593 2.00296 18.7782 1.22185C17.997 0.440735 16.938 0.00132321 15.8333 0ZM18.3333 15.8333C18.3333 16.4964 18.0699 17.1323 17.6011 17.6011C17.1323 18.0699 16.4964 18.3333 15.8333 18.3333H4.16667C3.50363 18.3333 2.86774 18.0699 2.3989 17.6011C1.93006 17.1323 1.66667 16.4964 1.66667 15.8333V4.16667C1.66667 3.50363 1.93006 2.86774 2.3989 2.3989C2.86774 1.93006 3.50363 1.66667 4.16667 1.66667H15.8333C16.4964 1.66667 17.1323 1.93006 17.6011 2.3989C18.0699 2.86774 18.3333 3.50363 18.3333 4.16667V15.8333Z" fill="#020617"/>
<path id="Vector_2" d="M7.77751 13.2658L4.51168 10C4.3554 9.84377 4.14348 9.75601 3.92251 9.75601C3.70154 9.75601 3.48962 9.84377 3.33334 10C3.17712 10.1563 3.08936 10.3682 3.08936 10.5892C3.08936 10.8101 3.17712 11.0221 3.33334 11.1783L6.59918 14.4442C6.75395 14.599 6.93771 14.7218 7.13997 14.8056C7.34222 14.8894 7.559 14.9326 7.77793 14.9326C7.99685 14.9326 8.21364 14.8894 8.41589 14.8056C8.61814 14.7218 8.8019 14.599 8.95668 14.4442L16.6667 6.73417C16.8229 6.57789 16.9107 6.36597 16.9107 6.145C16.9107 5.92403 16.8229 5.71211 16.6667 5.55583C16.5104 5.39961 16.2985 5.31184 16.0775 5.31184C15.8565 5.31184 15.6446 5.39961 15.4883 5.55583L7.77751 13.2658Z" fill="#020617"/>
</g>
</g>
<defs>
<clipPath id="clip0_1929_1163">
<rect width="20" height="20" fill="white"/>
</clipPath>
</defs>
</svg>
