<svg width="20" height="20" viewBox="0 0 20 20" fill="none" xmlns="http://www.w3.org/2000/svg">
<g id="check-circle" clip-path="url(#clip0_1929_1170)">
<g id="Group">
<path id="Vector" d="M15.1783 7.58167C15.255 7.65975 15.3156 7.7522 15.3565 7.85371C15.3974 7.95522 15.4179 8.06381 15.4169 8.17325C15.4158 8.2827 15.3931 8.39086 15.3502 8.49154C15.3073 8.59222 15.2449 8.68345 15.1667 8.76L11.4783 12.3808C10.8571 12.9951 10.0187 13.3397 9.145 13.34C8.28083 13.3394 7.45094 13.0019 6.83167 12.3992L5.24917 10.8433C5.16921 10.7671 5.10521 10.6757 5.06091 10.5744C5.0166 10.4732 4.99287 10.3642 4.9911 10.2537C4.98932 10.1432 5.00953 10.0335 5.05056 9.93088C5.09159 9.82828 5.15262 9.73487 5.23009 9.65607C5.30755 9.57728 5.39992 9.51468 5.50181 9.47191C5.60369 9.42915 5.71307 9.40707 5.82357 9.40697C5.93407 9.40687 6.04348 9.42875 6.14545 9.47133C6.24741 9.51391 6.33989 9.57635 6.4175 9.655L7.995 11.2058C8.64167 11.8308 9.6625 11.8275 10.3125 11.1908L14 7.57083C14.078 7.49409 14.1704 7.43348 14.2719 7.39248C14.3734 7.35148 14.482 7.33089 14.5914 7.3319C14.7009 7.33291 14.809 7.35549 14.9097 7.39834C15.0105 7.4412 15.1017 7.5035 15.1783 7.58167ZM20 10C20 15.5142 15.5142 20 10 20C4.48583 20 0 15.5142 0 10C0 4.48583 4.48583 0 10 0C15.5142 0 20 4.48583 20 10ZM18.3333 10C18.3333 5.405 14.595 1.66667 10 1.66667C5.405 1.66667 1.66667 5.405 1.66667 10C1.66667 14.595 5.405 18.3333 10 18.3333C14.595 18.3333 18.3333 14.595 18.3333 10Z" fill="#020617"/>
</g>
</g>
<defs>
<clipPath id="clip0_1929_1170">
<rect width="20" height="20" fill="white"/>
</clipPath>
</defs>
</svg>
