<svg width="33" height="33" viewBox="0 0 33 33" fill="none" xmlns="http://www.w3.org/2000/svg">
<path d="M28.3668 4.32001V4.36931C28.3852 6.04585 27.4747 7.59498 26.0013 8.39366L6.78591 8.29921C5.41029 7.47051 4.57452 5.97607 4.58855 4.36931V4.32001C4.58833 4.18427 4.59654 4.04865 4.61312 3.91393C4.62932 3.7376 4.65535 3.56222 4.69098 3.38878V3.38471C4.87321 2.32327 5.38879 1.34758 6.16287 0.599294C6.21611 0.557485 6.27896 0.529678 6.34569 0.518412C6.41242 0.507145 6.48091 0.512776 6.54491 0.534791C6.60891 0.556807 6.66638 0.594506 6.71208 0.64445C6.75779 0.694394 6.79026 0.754994 6.80655 0.820721C7.25739 2.49447 8.61028 4.04521 10.283 4.31594H10.2872L23.7547 4.17653C24.8518 3.29577 25.6776 2.12245 26.1366 0.792073C26.1551 0.728356 26.189 0.670168 26.2353 0.622616C26.2816 0.575064 26.3388 0.539604 26.4019 0.519348C26.4651 0.499091 26.5322 0.494658 26.5975 0.506438C26.6628 0.518218 26.7242 0.54585 26.7763 0.586909C27.5593 1.33573 28.081 2.31658 28.2644 3.38471C28.3 3.55956 28.326 3.73623 28.3423 3.91393C28.3589 4.04857 28.3672 4.18433 28.3668 4.32001H28.3668Z" fill="#FCE7F3"/>
<path d="M28.3915 17.829C28.3892 17.8631 28.3786 17.8961 28.3605 17.9251C28.3425 17.9541 28.3175 17.9782 28.288 17.9954C28.2583 18.0124 28.225 18.0218 28.1908 18.0228C28.1567 18.0238 28.1228 18.0164 28.0922 18.0013L27.5347 17.7223L26.9853 17.4475C26.9564 17.4324 26.9243 17.4246 26.8918 17.4248C26.8592 17.4249 26.8272 17.4331 26.7985 17.4485C26.7698 17.4638 26.7453 17.4859 26.7271 17.5129C26.7089 17.5399 26.6976 17.5709 26.6941 17.6033C26.69 17.6444 26.6819 17.6813 26.6778 17.7223C26.2104 20.8442 24.1155 22.9446 23.3325 23.6337C23.3071 23.6566 23.2763 23.6726 23.243 23.6803C23.2098 23.6879 23.1751 23.687 23.1423 23.6776C23.1095 23.6682 23.0796 23.6505 23.0555 23.6264C23.0313 23.6022 23.0137 23.5723 23.0043 23.5394C22.9739 23.4402 22.9313 23.3451 22.8774 23.2564C22.6506 22.9176 22.3628 22.6241 22.0287 22.3908C22.0045 22.3723 21.9766 22.3593 21.9469 22.3528C21.9172 22.3462 21.8864 22.3463 21.8567 22.353C21.827 22.3596 21.7991 22.3726 21.775 22.3912C21.7509 22.4098 21.7311 22.4334 21.7172 22.4605C21.676 22.5523 21.6266 22.6402 21.5695 22.723C20.5281 24.3065 17.4616 24.3435 16.4162 24.3065H16.4079C16.371 24.3074 16.3341 24.3062 16.2974 24.3024C16.2699 24.3013 16.243 24.2946 16.2182 24.2827C16.1935 24.2708 16.1714 24.254 16.1534 24.2332C16.1354 24.2125 16.1217 24.1883 16.1134 24.1621C16.105 24.136 16.102 24.1083 16.1047 24.081C16.244 22.8298 14.5425 22.6697 14.1163 22.6534C14.0858 22.6514 14.0552 22.6562 14.0268 22.6676C13.9984 22.6789 13.9729 22.6965 13.9522 22.719C13.9481 22.7271 13.94 22.7313 13.9357 22.7395C13.7814 22.9047 13.6848 23.1156 13.6604 23.3405C13.636 23.5654 13.6851 23.7921 13.8005 23.9867C13.816 24.0183 13.8232 24.0534 13.8212 24.0885C13.8192 24.1237 13.8083 24.1578 13.7893 24.1875C13.7703 24.2171 13.7441 24.2414 13.713 24.258C13.6819 24.2745 13.6471 24.2828 13.6119 24.2819C13.3618 24.2738 13.1242 24.2574 12.8946 24.2285C8.55711 23.7569 7.66337 20.5448 7.49523 19.6176C7.48922 19.5863 7.47599 19.5568 7.4566 19.5315C7.43722 19.5062 7.4122 19.4858 7.38354 19.4718C7.35489 19.4579 7.32337 19.4508 7.29151 19.4512C7.25964 19.4515 7.2283 19.4593 7.19997 19.4739C7.00692 19.5699 6.8332 19.7007 6.68752 19.8597C6.56495 19.9974 6.46532 20.1539 6.39245 20.3232C6.37465 20.3619 6.34529 20.394 6.30842 20.4153C6.27155 20.4365 6.229 20.4458 6.18666 20.4417C6.1443 20.4377 6.10426 20.4205 6.07209 20.3927C6.03992 20.3648 6.01721 20.3276 6.00713 20.2862C5.96594 20.1223 5.93329 19.9541 5.90448 19.7858C5.44943 17.1399 6.27358 14.0137 6.55222 13.0827C6.56148 13.0497 6.56244 13.015 6.55503 12.9815C6.54763 12.9481 6.53208 12.917 6.50976 12.891C6.48745 12.865 6.45907 12.8449 6.42713 12.8326C6.3952 12.8202 6.36071 12.8159 6.32673 12.8201C6.11046 12.8476 5.89756 12.8971 5.69132 12.9678C5.43149 13.058 5.18473 13.1821 4.95745 13.337C4.92414 13.3592 4.88505 13.3712 4.84501 13.3714C4.80497 13.3717 4.76574 13.3602 4.73216 13.3384C4.69858 13.3165 4.67214 13.2853 4.65609 13.2486C4.64004 13.2119 4.6351 13.1713 4.64186 13.1318C4.64593 13.0989 4.64999 13.0703 4.65405 13.0375C4.82047 11.7793 5.2496 10.5702 5.91355 9.48885C6.5775 8.40749 7.46141 7.47801 8.50784 6.76084C8.53326 6.7447 8.5547 6.72301 8.57055 6.69739C8.5864 6.67177 8.59625 6.64289 8.59935 6.61292C8.60254 6.58296 8.59892 6.55266 8.58876 6.5243C8.5786 6.49593 8.56216 6.47023 8.54067 6.44912C8.18399 6.10049 7.50336 6.11268 7.06065 6.16605H7.03608C7.01588 6.16123 6.99524 6.1585 6.97448 6.15792C6.94393 6.14888 6.9159 6.13287 6.89258 6.11115C6.86927 6.08943 6.85131 6.06259 6.84012 6.03274C6.829 6.00287 6.82499 5.97082 6.82838 5.93913C6.83177 5.90743 6.84249 5.87696 6.85968 5.85013C7.08503 5.47957 7.39134 5.1649 7.75561 4.92974C8.11987 4.69457 8.53264 4.54502 8.96293 4.49231C9.09761 4.47627 9.23311 4.46806 9.36874 4.46772C9.59442 4.46702 9.81939 4.48767 10.0412 4.52923C10.0748 4.53568 10.1094 4.53351 10.1419 4.52292C10.1744 4.51233 10.2037 4.49367 10.2271 4.46867C10.2504 4.44368 10.267 4.41317 10.2754 4.38C10.2837 4.34683 10.2835 4.31209 10.2748 4.27901C10.0837 3.78123 9.80146 3.32352 9.44253 2.92937C9.42166 2.90565 9.40699 2.87713 9.39984 2.84634C9.3927 2.81556 9.39329 2.78349 9.40158 2.75299C9.41423 2.70092 9.44638 2.6557 9.49139 2.62667C9.53641 2.59764 9.59084 2.58702 9.64346 2.59699C9.9982 2.66279 10.3446 2.76737 10.6766 2.90885C10.8644 2.99067 11.049 3.07961 11.23 3.17547C11.2607 3.19227 11.2951 3.20095 11.3301 3.20069C11.365 3.20043 11.3993 3.19123 11.4297 3.17397C11.4601 3.15671 11.4856 3.13197 11.5037 3.10208C11.5219 3.07219 11.5321 3.03816 11.5334 3.00321C11.5361 2.59354 11.6415 2.19111 11.8399 1.83276C12.0383 1.47441 12.3234 1.17159 12.6691 0.952034C12.8545 0.828013 13.0508 0.720904 13.2554 0.631996C13.2886 0.617119 13.3252 0.611379 13.3613 0.615367C13.3975 0.619356 13.432 0.632929 13.4611 0.654687C13.4904 0.676356 13.5133 0.705438 13.5276 0.738935C13.5419 0.772431 13.5469 0.809129 13.5423 0.845245C13.47 1.25426 13.4953 1.6746 13.6161 2.07198C13.6628 2.19904 13.7354 2.315 13.8293 2.41249C13.8493 2.4322 13.8731 2.44759 13.8993 2.45773C13.9255 2.46786 13.9535 2.47251 13.9815 2.47139C14.0096 2.47019 14.0371 2.46325 14.0624 2.45099C14.0877 2.43873 14.1102 2.42141 14.1286 2.4001C14.4196 2.05959 15.3257 1.2351 17.3469 1.13664H17.3714C17.9575 1.10988 18.5449 1.13739 19.126 1.21865C19.1674 1.22374 19.2063 1.24134 19.2374 1.26911C19.2686 1.29687 19.2905 1.33349 19.3003 1.37407C19.3101 1.41464 19.3073 1.45725 19.2923 1.49619C19.2773 1.53513 19.2507 1.56856 19.2162 1.59202C18.8406 1.82771 18.5282 2.15155 18.3061 2.53544C18.2891 2.56323 18.28 2.59519 18.28 2.62779C18.28 2.66039 18.2891 2.69235 18.3061 2.72014C18.3261 2.76176 18.3599 2.79515 18.4018 2.8146C18.4437 2.83406 18.491 2.83838 18.5357 2.82683C18.7713 2.76968 19.0113 2.73263 19.2532 2.71607C20.5939 2.6012 22.9717 2.94577 25.5544 5.82961C25.5814 5.85868 25.5993 5.89497 25.6061 5.93407C25.6129 5.97317 25.6082 6.0134 25.5926 6.04988C25.577 6.08636 25.5512 6.11752 25.5182 6.13959C25.4852 6.16165 25.4466 6.17367 25.4069 6.17418C25.1818 6.17172 24.9609 6.23582 24.772 6.35845C24.5831 6.48108 24.4346 6.65678 24.345 6.86352C24.3202 6.91161 24.3148 6.96744 24.3301 7.01939C24.3454 7.07133 24.3801 7.11537 24.427 7.14233C25.0214 7.45831 27.096 8.77514 27.8748 12.0161C27.8825 12.0516 27.8807 12.0885 27.8695 12.1231C27.8583 12.1577 27.8381 12.1887 27.811 12.2129C27.7839 12.2371 27.7508 12.2536 27.7152 12.2608C27.6796 12.2681 27.6427 12.2657 27.6083 12.2539C27.4134 12.1891 27.215 12.1357 27.0139 12.094C26.8622 12.0652 26.6983 12.0366 26.5219 12.0161C26.4795 12.0116 26.4367 12.0202 26.3994 12.0407C26.362 12.0613 26.3318 12.0928 26.3128 12.131C26.2926 12.1693 26.2853 12.2131 26.292 12.256C26.2986 12.2988 26.3188 12.3384 26.3497 12.3688C27.0662 13.0757 27.6201 13.9304 27.9728 14.8734C28.3254 15.8164 28.4683 16.8251 28.3915 17.829V17.829Z" fill="#6D28D9"/>
<path d="M27.5347 17.7222L26.9854 17.4475C26.9565 17.4324 26.9244 17.4246 26.8919 17.4248C26.8593 17.4249 26.8273 17.4331 26.7986 17.4484C26.7699 17.4638 26.7454 17.4859 26.7272 17.5129C26.709 17.5399 26.6976 17.5709 26.6942 17.6033C26.6901 17.6443 26.682 17.6813 26.6779 17.7222L26.1243 17.4475C26.0954 17.4329 26.0634 17.4255 26.031 17.4259C25.9986 17.4263 25.9668 17.4344 25.9383 17.4497C25.9097 17.465 25.8853 17.4869 25.867 17.5137C25.8487 17.5404 25.8372 17.5711 25.8333 17.6033C25.4885 19.7591 24.4508 21.7437 22.8775 23.2564C22.6508 22.9176 22.363 22.6241 22.0288 22.3908C22.0046 22.3723 21.9767 22.3593 21.947 22.3528C21.9173 22.3462 21.8865 22.3463 21.8568 22.353C21.8271 22.3596 21.7992 22.3726 21.7751 22.3912C21.751 22.4098 21.7312 22.4334 21.7173 22.4605C21.6762 22.5523 21.6267 22.6402 21.5696 22.723C21.4432 22.6036 21.309 22.4926 21.1679 22.3908C21.144 22.3725 21.1164 22.3597 21.087 22.3533C21.0577 22.3468 21.0272 22.3469 20.9979 22.3536C20.9685 22.3602 20.941 22.3732 20.9173 22.3917C20.8935 22.4102 20.8741 22.4337 20.8605 22.4605C20.1675 23.9455 17.8594 24.2614 16.4164 24.3065H16.408C16.3711 24.3074 16.3342 24.3061 16.2974 24.3024C16.27 24.3013 16.2431 24.2946 16.2183 24.2827C16.1936 24.2708 16.1715 24.2539 16.1535 24.2332C16.1355 24.2125 16.1219 24.1883 16.1135 24.1621C16.1051 24.1359 16.1022 24.1083 16.1048 24.081C16.2442 22.8298 14.5427 22.6696 14.1164 22.6534C14.0859 22.6514 14.0553 22.6562 14.0269 22.6676C13.9985 22.6789 13.973 22.6965 13.9523 22.719C13.9482 22.7271 13.9401 22.7313 13.9359 22.7395C13.7119 22.6914 13.4843 22.6627 13.2555 22.6534C13.225 22.6514 13.1944 22.6562 13.166 22.6675C13.1376 22.6789 13.1121 22.6965 13.0914 22.719C12.9297 22.8838 12.8272 23.0976 12.7997 23.327C12.7723 23.5563 12.8215 23.7883 12.9398 23.9867C12.9617 24.0259 12.9693 24.0716 12.961 24.1158C12.9528 24.16 12.9293 24.1999 12.8947 24.2286C8.55723 23.7569 7.66349 20.5448 7.49536 19.6176C7.48933 19.5863 7.47609 19.5568 7.4567 19.5315C7.43731 19.5062 7.41229 19.4858 7.38363 19.4718C7.35498 19.4579 7.32347 19.4508 7.29161 19.4512C7.25975 19.4516 7.22842 19.4594 7.20009 19.4739C7.00704 19.5699 6.83333 19.7007 6.68765 19.8597C6.66617 19.7799 6.64844 19.6991 6.6345 19.6176C6.62844 19.5863 6.61518 19.5569 6.59579 19.5316C6.57639 19.5063 6.55138 19.4859 6.52274 19.472C6.4941 19.458 6.4626 19.4509 6.43075 19.4513C6.39891 19.4516 6.36757 19.4594 6.33923 19.4739C6.17849 19.5537 6.03172 19.6591 5.9046 19.7858C5.44955 17.1398 6.2737 14.0137 6.55234 13.0827C6.5616 13.0497 6.56256 13.0149 6.55516 12.9815C6.54775 12.948 6.5322 12.9169 6.50988 12.891C6.48757 12.865 6.45919 12.8449 6.42726 12.8325C6.39532 12.8202 6.36083 12.8159 6.32685 12.8201C6.11058 12.8476 5.89768 12.8971 5.69144 12.9678C5.67725 12.9206 5.64685 12.8798 5.6056 12.8528C5.56436 12.8258 5.5149 12.8142 5.46595 12.8201C5.18663 12.8547 4.91345 12.9279 4.65417 13.0375C4.82059 11.7793 5.24972 10.5702 5.91367 9.48884C6.57762 8.40748 7.46153 7.47801 8.50796 6.76083C8.53338 6.74469 8.55483 6.723 8.57067 6.69738C8.58652 6.67176 8.59637 6.64289 8.59947 6.61292C8.60266 6.58295 8.59904 6.55265 8.58888 6.52429C8.57872 6.49592 8.56228 6.47022 8.54079 6.44911C8.18411 6.10048 7.50348 6.11267 7.06077 6.16604H7.0362C7.016 6.16122 6.99536 6.1585 6.9746 6.15791C6.94405 6.14887 6.91602 6.13286 6.8927 6.11114C6.86939 6.08942 6.85143 6.06258 6.84024 6.03273C6.82913 6.00286 6.82511 5.97081 6.8285 5.93912C6.8319 5.90743 6.84261 5.87696 6.8598 5.85012C7.08515 5.47956 7.39146 5.16489 7.75573 4.92973C8.11999 4.69456 8.53276 4.54501 8.96305 4.4923C9.04497 4.50468 9.11881 4.51688 9.18022 4.52922C9.21429 4.53558 9.2494 4.53329 9.28235 4.52256C9.3153 4.51182 9.34503 4.49298 9.36882 4.46776C9.59454 4.46701 9.81951 4.48767 10.0413 4.52922C10.0749 4.53567 10.1095 4.5335 10.142 4.52291C10.1746 4.51232 10.2038 4.49366 10.2272 4.46866C10.2505 4.44367 10.2671 4.41316 10.2755 4.37999C10.2838 4.34682 10.2836 4.31208 10.2749 4.279C10.0838 3.78123 9.80158 3.32351 9.44266 2.92936C9.42178 2.90564 9.40711 2.87712 9.39997 2.84634C9.39282 2.81555 9.39341 2.78348 9.4017 2.75298C9.73707 2.86568 10.0621 3.00702 10.3733 3.17546C10.4036 3.19264 10.4379 3.20162 10.4728 3.20149C10.5076 3.20137 10.5418 3.19215 10.572 3.17475C10.6023 3.15742 10.6275 3.13247 10.6452 3.10236C10.6628 3.07226 10.6723 3.03805 10.6727 3.00315C10.6721 2.97162 10.6734 2.94023 10.6767 2.90884C10.8645 2.99066 11.0491 3.0796 11.2301 3.17546C11.2608 3.19226 11.2952 3.20095 11.3302 3.20068C11.3651 3.20042 11.3994 3.19122 11.4298 3.17397C11.4602 3.15671 11.4857 3.13196 11.5039 3.10207C11.522 3.07218 11.5322 3.03815 11.5335 3.0032C11.5363 2.59354 11.6416 2.19111 11.84 1.83276C12.0384 1.47441 12.3235 1.17159 12.6691 0.952026C12.6199 1.40329 12.6158 2.0679 12.9685 2.41248C12.9889 2.43211 13.0131 2.4474 13.0396 2.45742C13.0662 2.46745 13.0944 2.472 13.1227 2.47081C13.1511 2.46968 13.1789 2.46284 13.2045 2.45069C13.2301 2.43853 13.2531 2.42132 13.2719 2.40009C13.376 2.28 13.4913 2.17012 13.6162 2.07197C13.6629 2.19904 13.7355 2.315 13.8293 2.41248C13.8493 2.43219 13.8732 2.44759 13.8994 2.45772C13.9256 2.46785 13.9535 2.4725 13.9816 2.47138C14.0097 2.47018 14.0372 2.46324 14.0625 2.45098C14.0878 2.43872 14.1103 2.4214 14.1287 2.40009C14.4197 2.05958 15.3258 1.2351 17.3469 1.13663H17.3715C17.6503 1.14882 17.9496 1.17766 18.2652 1.21865C18.3066 1.22373 18.3455 1.24133 18.3766 1.2691C18.4078 1.29687 18.4297 1.33348 18.4395 1.37406C18.4493 1.41463 18.4465 1.45724 18.4315 1.49618C18.4165 1.53512 18.3899 1.56855 18.3554 1.59201C17.9807 1.82877 17.6685 2.15238 17.4453 2.53543C17.4268 2.57016 17.4189 2.60952 17.4224 2.6487C17.4259 2.68788 17.4407 2.7252 17.465 2.75609C17.4894 2.78699 17.5222 2.81013 17.5594 2.82269C17.5967 2.83525 17.6368 2.83668 17.6749 2.82682C17.8825 2.77646 18.0935 2.7408 18.3062 2.72013C18.3262 2.76175 18.36 2.79514 18.4019 2.8146C18.4437 2.83405 18.4911 2.83837 18.5358 2.82682C18.7714 2.76967 19.0114 2.73262 19.2532 2.71606C20.6349 2.82262 22.5986 3.49125 24.6935 5.8296C24.7205 5.85868 24.7385 5.89499 24.7453 5.9341C24.7521 5.97322 24.7474 6.01347 24.7317 6.04995C24.7161 6.08644 24.6902 6.11761 24.6572 6.13966C24.6242 6.16171 24.5856 6.1737 24.5459 6.17418C24.321 6.17281 24.1006 6.23736 23.912 6.35986C23.7233 6.48235 23.5746 6.65744 23.4843 6.86351C23.461 6.91231 23.457 6.96805 23.4729 7.01969C23.4889 7.07133 23.5236 7.1151 23.5702 7.14233C24.1646 7.4583 26.235 8.77513 27.0139 12.0161C27.0223 12.0414 27.0223 12.0685 27.0139 12.094C26.8623 12.0652 26.6984 12.0366 26.522 12.0161C26.4796 12.0116 26.4368 12.0202 26.3994 12.0407C26.3621 12.0613 26.3319 12.0927 26.3129 12.1309C26.0981 12.0797 25.8805 12.0413 25.6611 12.0161C25.6184 12.0112 25.5752 12.0197 25.5376 12.0404C25.4999 12.0611 25.4696 12.093 25.4507 12.1317C25.4318 12.1703 25.4253 12.2138 25.4322 12.2563C25.439 12.2988 25.4588 12.3381 25.4889 12.3688C26.1927 13.0628 26.7395 13.8998 27.0924 14.8233C27.4454 15.7469 27.5962 16.7354 27.5348 17.7222H27.5347Z" fill="#8B5CF6"/>
<path d="M6.35959 3.52816C5.82406 3.70524 5.31302 3.94928 4.83861 4.25451C4.77252 4.30066 4.69366 4.32496 4.61307 4.324C4.60467 4.32469 4.59623 4.32329 4.58851 4.31993C4.58829 4.1842 4.59649 4.04858 4.61307 3.91386C4.62932 3.73753 4.65535 3.56215 4.69097 3.3887V3.38464C5.13643 3.1245 5.60768 2.91136 6.09716 2.74867C6.20048 2.71387 6.31339 2.72155 6.41106 2.77003C6.50872 2.81852 6.58315 2.90383 6.61796 3.00721C6.69029 3.22249 6.57478 3.45574 6.35959 3.52816ZM28.3668 4.31998C28.359 4.32329 28.3507 4.3248 28.3422 4.32405C28.2616 4.32497 28.1828 4.30063 28.1167 4.25446C27.6423 3.94922 27.1313 3.70519 26.5958 3.52816C26.5274 3.50515 26.4663 3.46454 26.4186 3.41041C26.3709 3.35628 26.3383 3.29054 26.3241 3.2198C26.3099 3.14903 26.3145 3.07576 26.3376 3.00735C26.3606 2.93894 26.4012 2.8778 26.4553 2.83007C26.5094 2.78234 26.5752 2.74969 26.6459 2.73541C26.7166 2.72113 26.7898 2.72572 26.8582 2.74872C27.3477 2.91141 27.8189 3.12454 28.2644 3.38468C28.3 3.55953 28.326 3.7362 28.3423 3.91391C28.3589 4.04854 28.3672 4.18431 28.3668 4.31998H28.3668Z" fill="#F9A8D4"/>
<path d="M16.4776 10.7525C16.4776 12.7915 14.8258 14.4446 12.7879 14.4446C12.6509 14.4447 12.5141 14.4365 12.3781 14.42C13.9913 14.238 15.2962 13.0218 15.5922 11.4245C15.8884 9.82699 15.1061 8.22377 13.6652 7.47483C13.7633 7.40617 13.8564 7.33076 13.9441 7.24915C15.4573 7.74513 16.4798 9.15911 16.4776 10.7525Z" fill="#E6E7E8"/>
<path d="M15.6578 10.7524C15.6582 12.6326 14.2455 14.2124 12.3781 14.42C11.7013 14.3454 11.0584 14.0844 10.5208 13.6662C9.98321 13.248 9.57199 12.6889 9.33282 12.0509C9.09373 11.413 9.03603 10.7212 9.16614 10.0524C9.29624 9.38357 9.60906 8.76394 10.0699 8.2623C10.0963 8.22881 10.1251 8.19728 10.1561 8.16794C10.319 8.20727 10.4849 8.23332 10.6521 8.24585H10.6602C11.0818 8.28505 11.5067 8.26572 11.923 8.18841C12.5499 8.08428 13.1454 7.84037 13.6653 7.47473C14.8907 8.10753 15.6599 9.37265 15.6578 10.7524Z" fill="white"/>
<path d="M23.8572 10.7525C23.8572 12.7914 22.2053 14.4445 20.1674 14.4445C20.0304 14.4446 19.8936 14.4364 19.7576 14.4199C20.4338 14.3453 21.0762 14.0846 21.6135 13.6669C22.1508 13.2492 22.562 12.6908 22.8014 12.0535C23.2897 10.7539 23.007 9.29011 22.0697 8.26637C22.3182 8.26265 22.5656 8.23244 22.8077 8.17627C23.4813 8.86421 23.8582 9.78929 23.8572 10.7525Z" fill="#E6E7E8"/>
<path d="M23.0372 10.7525C23.0376 12.6327 21.6249 14.2124 19.7576 14.42C18.0297 14.225 16.6726 12.8495 16.4996 11.1183C16.3267 9.38709 17.3851 7.77003 19.04 7.23669C19.6135 7.74121 20.3189 8.0714 21.0735 8.18844C21.2211 8.21728 21.3686 8.23368 21.5122 8.25013H21.5203C21.703 8.26564 21.8864 8.27098 22.0697 8.26639C22.6938 8.94349 23.0393 9.8314 23.0372 10.7525Z" fill="white"/>
<path d="M14.8378 10.7525C14.8378 11.8854 13.9201 12.8037 12.7879 12.8037C11.6558 12.8037 10.738 11.8854 10.738 10.7525C10.738 9.61967 11.6558 8.70129 12.7879 8.70129C13.92 8.70129 14.8378 9.61962 14.8378 10.7525V10.7525ZM22.2173 10.7525C22.2173 11.8854 21.2995 12.8037 20.1674 12.8037C19.0354 12.8037 18.1175 11.8854 18.1175 10.7525C18.1175 9.61967 19.0354 8.70129 20.1674 8.70129C21.2995 8.70129 22.2173 9.61962 22.2173 10.7525V10.7525Z" fill="#9333EA"/>
<path d="M14.018 10.7525C14.018 11.4323 13.4673 11.9833 12.7879 11.9833C12.1086 11.9833 11.558 11.4323 11.558 10.7525C11.558 10.0728 12.1087 9.52173 12.788 9.52173C13.4673 9.52173 14.018 10.0728 14.018 10.7525ZM21.3974 10.7525C21.3974 11.4323 20.8468 11.9833 20.1675 11.9833C19.4882 11.9833 18.9376 11.4323 18.9376 10.7525C18.9376 10.0728 19.4882 9.52173 20.1675 9.52173C20.8468 9.52173 21.3974 10.0728 21.3974 10.7525H21.3974Z" fill="#2C2F38"/>
<path d="M12.3781 9.52172C12.3781 9.97487 12.0108 10.3424 11.5579 10.3424C11.1053 10.3424 10.738 9.97487 10.738 9.52172C10.738 9.06875 11.1053 8.70129 11.5579 8.70129C12.0108 8.70129 12.3781 9.06875 12.3781 9.52172ZM19.7575 9.52172C19.7575 9.97487 19.3903 10.3424 18.9376 10.3424C18.4847 10.3424 18.1175 9.97487 18.1175 9.52172C18.1175 9.06875 18.4847 8.70129 18.9376 8.70129C19.3903 8.70129 19.7575 9.06875 19.7575 9.52172Z" fill="white"/>
<path fill-rule="evenodd" clip-rule="evenodd" d="M21.384 17.9874L24.0564 26.8196C24.1228 27.0393 24.0993 27.2763 23.9911 27.4787C23.8828 27.681 23.6987 27.8321 23.4791 27.8987L9.13065 32.2491C8.91111 32.3156 8.67416 32.2922 8.47193 32.184C8.26971 32.0758 8.11877 31.8916 8.05232 31.672L4.87892 21.1837C4.81248 20.9641 4.83597 20.727 4.94423 20.5247C5.05249 20.3223 5.23664 20.1712 5.45619 20.1047L12.0786 18.0968L21.384 17.9874Z" fill="#FBCFE8"/>
<path fill-rule="evenodd" clip-rule="evenodd" d="M21.562 20.2244L11.9566 19.9272L10.9002 18.4509L12.4824 17.9618L21.3827 17.9871L21.972 19.9786C21.9652 20.0242 21.9475 20.0676 21.9204 20.105C21.8933 20.1425 21.8577 20.1728 21.8164 20.1936C21.7752 20.2144 21.7296 20.225 21.6834 20.2244C21.6372 20.2239 21.6027 20.2462 21.562 20.2244Z" fill="#F9A8D4"/>
<path d="M22.4262 26.4114L21.6746 23.9273C21.6285 23.7748 21.4675 23.6887 21.3151 23.7349L18.8316 24.4879C18.6793 24.5341 18.5931 24.6951 18.6392 24.8476L19.3908 27.3318C19.437 27.4842 19.5979 27.5703 19.7503 27.5241L22.2338 26.7711C22.3862 26.7249 22.4723 26.5639 22.4262 26.4114Z" fill="#F9A8D4"/>
<path fill-rule="evenodd" clip-rule="evenodd" d="M17.8194 28.1079L15.8987 21.7595C15.8765 21.6863 15.8844 21.6072 15.9205 21.5398C15.9565 21.4723 16.0179 21.422 16.0911 21.3998C16.1643 21.3776 16.2433 21.3854 16.3107 21.4215C16.3781 21.4575 16.4284 21.5189 16.4506 21.5921L18.3713 27.9405C18.3934 28.0137 18.3856 28.0928 18.3495 28.1602C18.3134 28.2277 18.252 28.278 18.1788 28.3002C18.1056 28.3224 18.0267 28.3146 17.9592 28.2785C17.8918 28.2425 17.8415 28.1811 17.8194 28.1079ZM16.4396 28.5262L14.1014 20.7977C14.0792 20.7245 14.0871 20.6455 14.1231 20.5781C14.1592 20.5106 14.2206 20.4602 14.2938 20.4381C14.367 20.4159 14.446 20.4237 14.5134 20.4597C14.5808 20.4958 14.6311 20.5572 14.6533 20.6304L16.9915 28.3589C17.0137 28.4321 17.0058 28.5111 16.9697 28.5786C16.9336 28.646 16.8722 28.6964 16.7991 28.7186C16.7259 28.7408 16.6469 28.733 16.5795 28.6969C16.5121 28.6608 16.4617 28.5994 16.4396 28.5262ZM15.0598 28.9446L12.2206 19.56C12.1984 19.4868 12.2062 19.4078 12.2423 19.3403C12.2784 19.2729 12.3398 19.2225 12.413 19.2003C12.4862 19.1781 12.5652 19.1859 12.6326 19.222C12.7 19.2581 12.7503 19.3195 12.7725 19.3927L15.6117 28.7773C15.6339 28.8505 15.6261 28.9295 15.59 28.9969C15.5539 29.0644 15.4925 29.1148 15.4193 29.1369C15.3461 29.1591 15.2671 29.1513 15.1997 29.1153C15.1323 29.0792 15.082 29.0178 15.0598 28.9446ZM13.6801 29.363L10.8408 19.9784C10.8186 19.9052 10.8265 19.8261 10.8626 19.7587C10.8986 19.6912 10.96 19.6409 11.0332 19.6187C11.1064 19.5965 11.1854 19.6043 11.2528 19.6404C11.3202 19.6764 11.3705 19.7378 11.3927 19.811L14.232 29.1956C14.2541 29.2688 14.2463 29.3479 14.2102 29.4153C14.1741 29.4828 14.1127 29.5331 14.0395 29.5553C13.9663 29.5775 13.8873 29.5697 13.8199 29.5336C13.7525 29.4976 13.7022 29.4362 13.6801 29.363ZM12.3003 29.7813L9.46102 20.3967C9.43887 20.3235 9.4467 20.2445 9.48279 20.1771C9.51888 20.1096 9.58027 20.0592 9.65346 20.037C9.72665 20.0149 9.80564 20.0227 9.87305 20.0587C9.94046 20.0948 9.99077 20.1562 10.0129 20.2294L12.8522 29.614C12.8743 29.6872 12.8665 29.7662 12.8304 29.8337C12.7943 29.9011 12.7329 29.9515 12.6598 29.9737C12.5866 29.9959 12.5076 29.9881 12.4402 29.952C12.3728 29.9159 12.3224 29.8545 12.3003 29.7813ZM10.9205 30.1997L8.08125 20.8151C8.0591 20.7419 8.06693 20.6629 8.10302 20.5954C8.13911 20.528 8.20051 20.4776 8.27369 20.4554C8.34688 20.4332 8.42587 20.441 8.49328 20.4771C8.56069 20.5132 8.61101 20.5745 8.63315 20.6478L11.4724 30.0324C11.4946 30.1056 11.4867 30.1846 11.4507 30.252C11.4146 30.3195 11.3532 30.3699 11.28 30.392C11.2068 30.4142 11.1278 30.4064 11.0604 30.3704C10.993 30.3343 10.9427 30.2729 10.9205 30.1997ZM8.12112 25.9258L6.70148 21.2335C6.67933 21.1603 6.68716 21.0812 6.72325 21.0138C6.75935 20.9463 6.82074 20.896 6.89392 20.8738C6.96711 20.8516 7.0461 20.8594 7.11351 20.8955C7.18092 20.9315 7.23124 20.9929 7.25339 21.0661L8.67303 25.7584C8.69517 25.8316 8.68734 25.9106 8.65125 25.9781C8.61516 26.0456 8.55377 26.0959 8.48058 26.1181C8.40739 26.1403 8.3284 26.1325 8.26099 26.0964C8.19358 26.0604 8.14327 25.999 8.12112 25.9258Z" fill="#F472B6"/>
<path d="M11.558 17.7266H14.0179V18.547C14.0179 19.0001 13.6509 19.3675 13.198 19.3675H12.3781C11.9252 19.3675 11.558 19.0001 11.558 18.547V17.7266Z" fill="#F1F5F9"/>
<path d="M11.968 17.7266H13.6079V18.547C13.6079 19.0001 13.2408 19.3675 12.7879 19.3675C12.335 19.3675 11.968 19.0001 11.968 18.547V17.7266Z" fill="white"/>
<path d="M18.9376 17.7266H21.3974V18.547C21.3974 19.0001 21.0303 19.3675 20.5775 19.3675H19.7576C19.3047 19.3675 18.9376 19.0001 18.9376 18.547V17.7266Z" fill="#F1F5F9"/>
<path d="M19.3475 17.7266H20.9874V18.547C20.9874 19.0001 20.6203 19.3675 20.1675 19.3675C19.7147 19.3675 19.3475 19.0001 19.3475 18.547V17.7266Z" fill="white"/>
<path d="M21.3974 18.1367H11.558C10.2002 18.1354 9.09954 17.0341 9.09827 15.6753C9.09827 15.4488 9.2819 15.265 9.50833 15.265C9.73477 15.265 9.91817 15.4488 9.91817 15.6753C9.91817 16.5817 10.6525 17.3162 11.558 17.3162H21.3975C22.3032 17.3162 23.0372 16.5817 23.0372 15.6754C23.0372 15.5666 23.0805 15.4622 23.1574 15.3852C23.2343 15.3083 23.3386 15.2651 23.4473 15.2651C23.6737 15.2651 23.8572 15.4488 23.8572 15.6754C23.8559 17.0341 22.7553 18.1354 21.3975 18.1367H21.3974Z" fill="#4C1D95"/>
</svg>
