<svg width="317" height="317" viewBox="0 0 317 317" fill="none" xmlns="http://www.w3.org/2000/svg">
<path d="M276.055 37.8419V38.3304C276.237 54.9386 267.218 70.2847 252.622 78.1966L62.2693 77.2609C48.6421 69.0516 40.3627 54.2473 40.5017 38.3304V37.8419C40.4996 36.4973 40.5808 35.1538 40.7451 33.8193C40.9056 32.0725 41.1635 30.3351 41.5163 28.6169V28.5767C43.3216 18.0618 48.4291 8.39638 56.0973 0.983635C56.6247 0.569459 57.2473 0.294002 57.9084 0.182389C58.5694 0.0707759 59.2479 0.126559 59.8819 0.344651C60.5159 0.562743 61.0852 0.936202 61.5379 1.43096C61.9907 1.92572 62.3124 2.52603 62.4738 3.17714C66.9399 19.7577 80.342 35.1197 96.912 37.8017H96.9541L230.367 36.4207C241.235 27.6956 249.415 16.0724 253.962 2.89335C254.146 2.26215 254.481 1.68572 254.94 1.21467C255.398 0.743608 255.965 0.392327 256.591 0.191662C257.216 -0.00900367 257.881 -0.0529172 258.528 0.0637761C259.175 0.180469 259.783 0.454201 260.299 0.860941C268.055 8.27896 273.224 17.9954 275.041 28.5767C275.394 30.3087 275.651 32.0589 275.812 33.8193C275.976 35.153 276.059 36.4979 276.055 37.8419H276.055Z" fill="#FCE7F3"/>
<path d="M276.3 171.665C276.277 172.003 276.172 172.33 275.993 172.617C275.814 172.905 275.567 173.144 275.274 173.313C274.981 173.482 274.65 173.575 274.312 173.585C273.974 173.596 273.638 173.522 273.335 173.372L267.812 170.608L262.37 167.886C262.084 167.737 261.766 167.66 261.443 167.661C261.121 167.663 260.804 167.743 260.52 167.896C260.235 168.048 259.992 168.267 259.812 168.534C259.632 168.802 259.519 169.109 259.485 169.43C259.445 169.836 259.364 170.202 259.324 170.608C254.694 201.534 233.941 222.342 226.184 229.169C225.932 229.395 225.628 229.554 225.298 229.63C224.968 229.706 224.625 229.696 224.3 229.603C223.975 229.51 223.679 229.335 223.44 229.096C223.201 228.856 223.026 228.56 222.933 228.234C222.632 227.251 222.209 226.309 221.676 225.43C219.43 222.075 216.578 219.167 213.268 216.856C213.029 216.672 212.752 216.544 212.458 216.479C212.164 216.414 211.859 216.415 211.565 216.481C211.27 216.546 210.994 216.676 210.755 216.86C210.516 217.044 210.321 217.278 210.182 217.546C209.775 218.456 209.285 219.326 208.72 220.147C198.404 235.833 168.026 236.199 157.669 235.833H157.588C157.222 235.842 156.856 235.83 156.492 235.793C156.221 235.782 155.954 235.716 155.709 235.598C155.463 235.48 155.245 235.313 155.066 235.107C154.888 234.902 154.753 234.662 154.67 234.403C154.587 234.144 154.557 233.87 154.584 233.599C155.964 221.204 139.109 219.618 134.886 219.458C134.584 219.437 134.281 219.485 134 219.598C133.718 219.71 133.466 219.884 133.26 220.107C133.22 220.187 133.14 220.229 133.098 220.31C131.568 221.947 130.611 224.036 130.37 226.264C130.128 228.492 130.615 230.738 131.758 232.665C131.912 232.978 131.982 233.326 131.963 233.674C131.943 234.022 131.835 234.36 131.647 234.654C131.459 234.948 131.199 235.189 130.891 235.353C130.583 235.517 130.238 235.598 129.889 235.59C127.412 235.509 125.058 235.346 122.783 235.061C79.8155 230.389 70.9619 198.569 69.2963 189.384C69.2367 189.074 69.1056 188.782 68.9136 188.531C68.7215 188.28 68.4737 188.078 68.1898 187.94C67.9059 187.801 67.5938 187.731 67.2781 187.735C66.9624 187.739 66.6519 187.816 66.3713 187.96C64.4589 188.911 62.738 190.207 61.2949 191.782C60.0807 193.146 59.0937 194.696 58.3718 196.374C58.1955 196.757 57.9046 197.075 57.5394 197.286C57.1742 197.496 56.7527 197.588 56.3332 197.548C55.9136 197.508 55.5169 197.338 55.1982 197.062C54.8795 196.786 54.6546 196.417 54.5548 196.008C54.1467 194.384 53.8233 192.717 53.5378 191.05C49.03 164.839 57.1943 133.871 59.9545 124.647C60.0462 124.321 60.0558 123.976 59.9824 123.645C59.909 123.314 59.755 123.006 59.5339 122.748C59.3129 122.491 59.0317 122.292 58.7154 122.169C58.3991 122.047 58.0574 122.005 57.7208 122.046C55.5783 122.319 53.4693 122.809 51.4262 123.509C48.8523 124.402 46.4078 125.632 44.1563 127.166C43.8263 127.387 43.4391 127.505 43.0425 127.508C42.6458 127.51 42.2572 127.396 41.9245 127.18C41.5919 126.964 41.3299 126.655 41.171 126.291C41.012 125.927 40.963 125.525 41.0301 125.134C41.0703 124.808 41.1106 124.525 41.1508 124.199C42.7994 111.735 47.0505 99.7582 53.6277 89.0459C60.2049 78.3336 68.9612 69.126 79.3273 62.0215C79.5792 61.8616 79.7916 61.6467 79.9486 61.393C80.1056 61.1392 80.2032 60.8531 80.2339 60.5562C80.2655 60.2594 80.2297 59.9593 80.129 59.6783C80.0284 59.3973 79.8655 59.1427 79.6526 58.9336C76.1192 55.4799 69.3768 55.6007 64.9911 56.1294H64.7478C64.5477 56.0816 64.3432 56.0546 64.1375 56.0489C63.8349 55.9593 63.5572 55.8007 63.3262 55.5855C63.0953 55.3703 62.9174 55.1045 62.8065 54.8088C62.6964 54.5129 62.6566 54.1954 62.6902 53.8814C62.7239 53.5675 62.83 53.2656 63.0003 52.9998C65.2327 49.329 68.267 46.2118 71.8756 43.8822C75.4841 41.5526 79.573 40.0711 83.8356 39.5489C85.1698 39.39 86.5121 39.3087 87.8557 39.3053C90.0913 39.2983 92.3199 39.503 94.5172 39.9146C94.8497 39.9785 95.193 39.957 95.515 39.8521C95.837 39.7472 96.1272 39.5623 96.3584 39.3147C96.5895 39.0671 96.7542 38.7649 96.8369 38.4363C96.9197 38.1078 96.9178 37.7636 96.8314 37.4359C94.9384 32.5048 92.1423 27.9705 88.5867 24.066C88.3799 23.8311 88.2346 23.5485 88.1638 23.2436C88.093 22.9386 88.0989 22.6209 88.1809 22.3188C88.3063 21.803 88.6248 21.355 89.0707 21.0674C89.5166 20.7798 90.0559 20.6746 90.5771 20.7734C94.0912 21.4252 97.5232 22.4612 100.811 23.8628C102.672 24.6733 104.5 25.5543 106.294 26.504C106.598 26.6704 106.939 26.7564 107.285 26.7538C107.631 26.7512 107.971 26.6601 108.272 26.4891C108.573 26.3181 108.826 26.073 109.005 25.7769C109.185 25.4808 109.286 25.1437 109.299 24.7975C109.326 20.7393 110.37 16.7527 112.336 13.2027C114.301 9.65282 117.126 6.65303 120.55 4.47805C122.387 3.24946 124.331 2.18841 126.357 1.30767C126.687 1.16029 127.049 1.10342 127.407 1.14294C127.766 1.18245 128.107 1.31691 128.396 1.53245C128.686 1.74711 128.913 2.0352 129.054 2.36703C129.196 2.69885 129.246 3.06239 129.2 3.42016C128.483 7.47201 128.734 11.636 129.932 15.5725C130.394 16.8312 131.113 17.98 132.043 18.9456C132.241 19.1409 132.477 19.2934 132.736 19.3938C132.996 19.4942 133.273 19.5402 133.551 19.5291C133.829 19.5173 134.102 19.4485 134.353 19.3271C134.603 19.2056 134.826 19.034 135.008 18.8229C137.891 15.4498 146.867 7.28221 166.889 6.30675H167.132C172.938 6.04169 178.757 6.31424 184.513 7.11924C184.924 7.16959 185.309 7.34394 185.617 7.61903C185.926 7.89412 186.143 8.25686 186.24 8.65881C186.337 9.06076 186.31 9.48279 186.161 9.86858C186.012 10.2544 185.749 10.5855 185.407 10.8179C181.687 13.1527 178.592 16.3608 176.391 20.1637C176.223 20.439 176.133 20.7556 176.133 21.0785C176.133 21.4014 176.223 21.718 176.391 21.9933C176.59 22.4057 176.925 22.7364 177.339 22.9291C177.754 23.1219 178.223 23.1647 178.666 23.0503C181 22.4841 183.377 22.1171 185.773 21.953C199.055 20.8151 222.61 24.2285 248.194 52.7965C248.462 53.0845 248.64 53.444 248.707 53.8313C248.775 54.2186 248.728 54.6172 248.573 54.9786C248.419 55.34 248.163 55.6487 247.836 55.8673C247.51 56.0858 247.127 56.2049 246.734 56.21C244.503 56.1856 242.315 56.8206 240.444 58.0354C238.573 59.2501 237.101 60.9906 236.215 63.0387C235.968 63.5151 235.915 64.0682 236.067 64.5827C236.218 65.0973 236.562 65.5336 237.027 65.8007C242.915 68.9308 263.467 81.9757 271.181 114.081C271.258 114.433 271.24 114.799 271.129 115.142C271.018 115.484 270.818 115.791 270.549 116.031C270.281 116.271 269.953 116.434 269.6 116.506C269.248 116.577 268.882 116.554 268.542 116.437C266.611 115.795 264.645 115.267 262.653 114.853C261.15 114.568 259.527 114.284 257.779 114.081C257.359 114.037 256.936 114.122 256.565 114.326C256.195 114.529 255.896 114.841 255.708 115.219C255.508 115.599 255.436 116.033 255.501 116.458C255.567 116.882 255.768 117.274 256.073 117.575C263.171 124.578 268.658 133.045 272.152 142.387C275.645 151.729 277.061 161.72 276.3 171.665V171.665Z" fill="#6D28D9"/>
<path d="M267.811 170.608L262.37 167.886C262.084 167.737 261.766 167.66 261.443 167.661C261.121 167.663 260.804 167.743 260.52 167.896C260.235 168.048 259.992 168.267 259.812 168.534C259.632 168.802 259.519 169.109 259.485 169.43C259.445 169.836 259.364 170.202 259.324 170.608L253.839 167.886C253.553 167.742 253.236 167.668 252.916 167.672C252.595 167.676 252.28 167.757 251.997 167.908C251.714 168.059 251.472 168.277 251.291 168.542C251.11 168.807 250.995 169.111 250.957 169.43C247.541 190.786 237.262 210.446 221.676 225.43C219.43 222.075 216.579 219.167 213.269 216.856C213.029 216.672 212.753 216.544 212.458 216.479C212.164 216.414 211.859 216.415 211.565 216.481C211.271 216.546 210.994 216.676 210.755 216.86C210.516 217.044 210.321 217.278 210.183 217.546C209.775 218.456 209.286 219.326 208.72 220.147C207.467 218.964 206.138 217.864 204.74 216.856C204.504 216.675 204.23 216.548 203.939 216.484C203.648 216.42 203.347 216.421 203.056 216.487C202.765 216.553 202.493 216.682 202.258 216.865C202.022 217.048 201.83 217.28 201.695 217.546C194.83 232.257 171.966 235.387 157.67 235.833H157.587C157.222 235.842 156.856 235.83 156.492 235.793C156.221 235.782 155.954 235.715 155.709 235.597C155.464 235.48 155.245 235.313 155.067 235.107C154.888 234.902 154.753 234.662 154.67 234.403C154.587 234.144 154.558 233.87 154.584 233.599C155.964 221.204 139.109 219.618 134.886 219.458C134.584 219.437 134.281 219.485 134 219.598C133.719 219.71 133.466 219.884 133.261 220.107C133.221 220.187 133.14 220.229 133.098 220.31C130.88 219.834 128.625 219.549 126.358 219.458C126.056 219.437 125.753 219.485 125.472 219.597C125.19 219.71 124.938 219.884 124.733 220.107C123.131 221.74 122.115 223.858 121.843 226.13C121.571 228.402 122.059 230.7 123.23 232.665C123.448 233.053 123.523 233.506 123.441 233.944C123.359 234.382 123.127 234.777 122.784 235.061C79.8159 230.389 70.9623 198.569 69.2967 189.383C69.237 189.073 69.1059 188.781 68.9138 188.531C68.7216 188.28 68.4738 188.078 68.19 187.94C67.9061 187.802 67.594 187.732 67.2783 187.735C66.9627 187.739 66.6523 187.816 66.3717 187.961C64.4593 188.912 62.7385 190.207 61.2953 191.782C61.0826 190.991 60.9069 190.191 60.7688 189.384C60.7088 189.074 60.5775 188.782 60.3853 188.532C60.1932 188.281 59.9454 188.079 59.6617 187.941C59.378 187.803 59.066 187.733 58.7505 187.736C58.435 187.739 58.1246 187.816 57.8438 187.96C56.2515 188.751 54.7976 189.795 53.5382 191.05C49.0305 164.839 57.1947 133.871 59.955 124.647C60.0466 124.321 60.0562 123.976 59.9828 123.645C59.9095 123.314 59.7554 123.006 59.5344 122.748C59.3133 122.491 59.0321 122.292 58.7158 122.169C58.3995 122.047 58.0578 122.005 57.7212 122.046C55.5788 122.319 53.4697 122.809 51.4266 123.509C51.2861 123.041 50.985 122.638 50.5763 122.37C50.1677 122.103 49.6778 121.988 49.1929 122.046C46.4259 122.389 43.7197 123.114 41.1512 124.199C42.7998 111.735 47.0509 99.7582 53.6281 89.0459C60.2054 78.3336 68.9616 69.126 79.3278 62.0215C79.5797 61.8616 79.7921 61.6467 79.9491 61.3929C80.1061 61.1392 80.2036 60.8531 80.2343 60.5562C80.2659 60.2594 80.2301 59.9592 80.1294 59.6782C80.0288 59.3973 79.8659 59.1427 79.653 58.9336C76.1196 55.4799 69.3772 55.6007 64.9916 56.1294H64.7482C64.5481 56.0816 64.3436 56.0546 64.1379 56.0488C63.8353 55.9593 63.5576 55.8007 63.3267 55.5855C63.0957 55.3703 62.9178 55.1044 62.807 54.8088C62.6969 54.5129 62.657 54.1954 62.6907 53.8814C62.7243 53.5674 62.8304 53.2656 63.0007 52.9998C65.2331 49.3289 68.2675 46.2117 71.876 43.8821C75.4845 41.5525 79.5735 40.071 83.836 39.5488C84.6475 39.6715 85.379 39.7924 85.9874 39.9146C86.3248 39.9776 86.6727 39.9549 86.9991 39.8486C87.3255 39.7422 87.62 39.5556 87.8557 39.3058C90.0918 39.2983 92.3204 39.503 94.5176 39.9146C94.8502 39.9785 95.1935 39.957 95.5155 39.8521C95.8375 39.7472 96.1276 39.5623 96.3588 39.3147C96.59 39.0671 96.7546 38.7649 96.8374 38.4363C96.9201 38.1077 96.9182 37.7635 96.8319 37.4359C94.9389 32.5048 92.1427 27.9705 88.5871 24.066C88.3804 23.8311 88.235 23.5485 88.1642 23.2435C88.0934 22.9386 88.0993 22.6209 88.1814 22.3188C91.5037 23.4351 94.7238 24.8353 97.8062 26.5039C98.1067 26.6742 98.4463 26.763 98.7916 26.7618C99.1369 26.7606 99.4759 26.6693 99.7751 26.4969C100.075 26.3252 100.325 26.078 100.5 25.7798C100.675 25.4816 100.768 25.1427 100.772 24.797C100.766 24.4846 100.779 24.1737 100.812 23.8627C102.672 24.6733 104.501 25.5543 106.294 26.5039C106.598 26.6704 106.939 26.7564 107.285 26.7538C107.632 26.7512 107.971 26.6601 108.273 26.4891C108.574 26.3181 108.826 26.073 109.006 25.7769C109.186 25.4808 109.287 25.1437 109.3 24.7975C109.327 20.7393 110.371 16.7527 112.336 13.2028C114.302 9.65288 117.126 6.65306 120.55 4.47803C120.061 8.9484 120.021 15.5322 123.515 18.9456C123.717 19.1401 123.957 19.2915 124.22 19.3908C124.482 19.4901 124.762 19.5353 125.043 19.5235C125.324 19.5123 125.599 19.4445 125.853 19.3241C126.107 19.2037 126.334 19.0333 126.52 18.8229C127.551 17.6332 128.694 16.5448 129.932 15.5725C130.394 16.8312 131.113 17.9799 132.043 18.9456C132.241 19.1409 132.477 19.2934 132.736 19.3938C132.996 19.4941 133.273 19.5402 133.551 19.5291C133.829 19.5173 134.102 19.4485 134.353 19.327C134.603 19.2056 134.826 19.034 135.008 18.8229C137.891 15.4498 146.867 7.28219 166.888 6.30673H167.132C169.894 6.42755 172.859 6.71321 175.985 7.11923C176.396 7.16957 176.781 7.34392 177.089 7.61901C177.398 7.8941 177.615 8.25684 177.712 8.65879C177.81 9.06074 177.782 9.48278 177.633 9.86856C177.484 10.2543 177.221 10.5855 176.879 10.8178C173.167 13.1633 170.075 16.369 167.863 20.1637C167.68 20.5077 167.601 20.8976 167.636 21.2857C167.671 21.6739 167.818 22.0435 168.059 22.3496C168.3 22.6556 168.625 22.8848 168.994 23.0093C169.363 23.1337 169.76 23.1479 170.137 23.0502C172.195 22.5513 174.284 22.1981 176.391 21.9933C176.59 22.4056 176.925 22.7364 177.339 22.9291C177.754 23.1218 178.223 23.1647 178.666 23.0502C181 22.4841 183.377 22.117 185.773 21.953C199.46 23.0086 218.914 29.6322 239.666 52.7965C239.934 53.0846 240.112 53.4442 240.179 53.8317C240.246 54.2192 240.2 54.6179 240.045 54.9794C239.89 55.3408 239.633 55.6495 239.307 55.868C238.98 56.0864 238.597 56.2052 238.204 56.2099C235.976 56.1964 233.793 56.8358 231.924 58.0493C230.055 59.2628 228.582 60.9973 227.687 63.0387C227.457 63.5221 227.417 64.0742 227.575 64.5858C227.732 65.0973 228.076 65.5309 228.538 65.8007C234.427 68.9308 254.936 81.9757 262.653 114.081C262.735 114.332 262.735 114.601 262.653 114.853C261.15 114.568 259.527 114.284 257.779 114.081C257.359 114.037 256.936 114.122 256.565 114.326C256.195 114.529 255.896 114.841 255.708 115.219C253.58 114.711 251.424 114.331 249.251 114.081C248.828 114.033 248.401 114.117 248.027 114.322C247.654 114.528 247.354 114.843 247.167 115.226C246.98 115.609 246.915 116.04 246.983 116.461C247.051 116.882 247.247 117.271 247.545 117.575C254.517 124.45 259.934 132.742 263.43 141.891C266.926 151.039 268.421 160.832 267.812 170.608H267.811Z" fill="#8B5CF6"/>
<path d="M58.0461 29.998C52.741 31.7522 47.6785 34.1698 42.9788 37.1934C42.3242 37.6506 41.5429 37.8913 40.7446 37.8818C40.6614 37.8886 40.5778 37.8748 40.5013 37.8415C40.4991 36.4969 40.5804 35.1534 40.7446 33.8188C40.9056 32.0721 41.1635 30.3347 41.5164 28.6165V28.5762C45.9291 25.9992 50.5975 23.8879 55.4463 22.2762C56.4699 21.9314 57.5884 22.0075 58.5559 22.4878C59.5234 22.9681 60.2607 23.8132 60.6056 24.8374C61.3221 26.97 60.1778 29.2806 58.0461 29.998ZM276.055 37.842C275.978 37.8748 275.896 37.8897 275.812 37.8823C275.013 37.8914 274.232 37.6503 273.578 37.1929C268.878 34.1691 263.816 31.7517 258.511 29.998C257.833 29.7701 257.228 29.3677 256.756 28.8315C256.284 28.2953 255.961 27.644 255.82 26.9433C255.679 26.2422 255.725 25.5164 255.953 24.8387C256.181 24.1611 256.583 23.5554 257.119 23.0825C257.655 22.6097 258.306 22.2863 259.007 22.1448C259.708 22.0034 260.433 22.0489 261.11 22.2767C265.959 23.8883 270.628 25.9997 275.04 28.5767C275.393 30.3088 275.651 32.0589 275.812 33.8193C275.976 35.153 276.059 36.498 276.055 37.842H276.055Z" fill="#F9A8D4"/>
<path d="M158.278 101.564C158.278 121.762 141.915 138.138 121.727 138.138C120.37 138.139 119.014 138.058 117.667 137.895C133.648 136.092 146.575 124.044 149.507 108.22C152.441 92.3949 144.691 76.513 130.417 69.0938C131.389 68.4137 132.312 67.6667 133.18 66.8582C148.17 71.7715 158.3 85.7788 158.278 101.564Z" fill="#E6E7E8"/>
<path d="M150.156 101.564C150.159 120.189 136.165 135.839 117.667 137.895C110.962 137.156 104.593 134.571 99.2674 130.428C93.942 126.286 89.8684 120.747 87.4991 114.427C85.1306 108.107 84.559 101.254 85.8479 94.6285C87.1368 88.0032 90.2356 81.865 94.8004 76.8956C95.0622 76.5639 95.3477 76.2515 95.6545 75.9609C97.2686 76.3505 98.9117 76.6085 100.568 76.7326H100.648C104.825 77.121 109.034 76.9295 113.158 76.1636C119.368 75.1321 125.267 72.7159 130.418 69.0938C142.556 75.3624 150.176 87.895 150.156 101.564Z" fill="white"/>
<path d="M231.381 101.564C231.381 121.762 215.017 138.138 194.83 138.138C193.473 138.139 192.117 138.058 190.77 137.895C197.469 137.155 203.833 134.573 209.155 130.435C214.477 126.297 218.55 120.765 220.923 114.453C225.759 101.578 222.959 87.0774 213.674 76.9359C216.135 76.899 218.586 76.5998 220.984 76.0433C227.658 82.8582 231.391 92.0223 231.381 101.564Z" fill="#E6E7E8"/>
<path d="M223.259 101.564C223.263 120.189 209.268 135.839 190.77 137.895C173.653 135.963 160.209 122.337 158.496 105.187C156.783 88.0379 167.267 72.0188 183.662 66.7355C189.342 71.7333 196.331 75.0042 203.806 76.1637C205.268 76.4494 206.729 76.6119 208.151 76.7748H208.232C210.042 76.9284 211.859 76.9814 213.674 76.9359C219.856 83.6434 223.28 92.4392 223.259 101.564Z" fill="white"/>
<path d="M142.034 101.564C142.034 112.786 132.942 121.883 121.727 121.883C110.512 121.883 101.42 112.786 101.42 101.564C101.42 90.3414 110.512 81.2438 121.727 81.2438C132.942 81.2438 142.034 90.3409 142.034 101.563V101.564ZM215.136 101.564C215.136 112.786 206.045 121.883 194.83 121.883C183.616 121.883 174.523 112.786 174.523 101.564C174.523 90.3414 183.616 81.2438 194.829 81.2438C206.045 81.2438 215.136 90.3409 215.136 101.563V101.564Z" fill="#9333EA"/>
<path d="M133.912 101.564C133.912 108.297 128.456 113.756 121.727 113.756C114.997 113.756 109.542 108.297 109.542 101.564C109.542 94.83 114.998 89.3711 121.727 89.3711C128.457 89.3711 133.912 94.83 133.912 101.564ZM207.014 101.564C207.014 108.297 201.559 113.756 194.83 113.756C188.101 113.756 182.647 108.297 182.647 101.564C182.647 94.83 188.101 89.3711 194.83 89.3711C201.559 89.3711 207.014 94.83 207.014 101.564H207.014Z" fill="#2C2F38"/>
<path d="M117.667 89.3711C117.667 93.8602 114.029 97.5007 109.542 97.5007C105.058 97.5007 101.42 93.8602 101.42 89.3711C101.42 84.8839 105.058 81.2438 109.542 81.2438C114.029 81.2438 117.667 84.8839 117.667 89.3711ZM190.77 89.3711C190.77 93.8602 187.131 97.5007 182.647 97.5007C178.161 97.5007 174.523 93.8602 174.523 89.3711C174.523 84.8839 178.161 81.2438 182.647 81.2438C187.131 81.2438 190.77 84.8839 190.77 89.3711Z" fill="white"/>
<path fill-rule="evenodd" clip-rule="evenodd" d="M206.882 173.234L233.355 260.729C234.013 262.904 233.781 265.252 232.708 267.257C231.636 269.262 229.811 270.758 227.637 271.418L85.4971 314.514C83.3222 315.173 80.975 314.941 78.9717 313.869C76.9684 312.797 75.4732 310.973 74.8149 308.797L43.3784 204.897C42.7202 202.722 42.9529 200.374 44.0254 198.369C45.0978 196.365 46.9221 194.868 49.097 194.209L114.7 174.318L206.882 173.234Z" fill="#FBCFE8"/>
<path fill-rule="evenodd" clip-rule="evenodd" d="M208.645 195.396L113.492 192.451L103.026 177.826L118.7 172.981L206.869 173.232L212.706 192.96C212.639 193.412 212.463 193.842 212.195 194.213C211.927 194.584 211.574 194.885 211.165 195.09C210.757 195.296 210.305 195.401 209.847 195.395C209.39 195.39 209.048 195.611 208.645 195.396Z" fill="#F9A8D4"/>
<path d="M217.205 256.685L209.76 232.077C209.303 230.566 207.709 229.713 206.199 230.171L181.597 237.63C180.087 238.088 179.234 239.683 179.691 241.193L187.136 265.802C187.593 267.312 189.188 268.166 190.697 267.708L215.299 260.249C216.809 259.791 217.662 258.196 217.205 256.685Z" fill="#F9A8D4"/>
<path fill-rule="evenodd" clip-rule="evenodd" d="M171.57 273.49L152.543 210.601C152.324 209.876 152.401 209.093 152.759 208.425C153.116 207.757 153.724 207.258 154.449 207.038C155.175 206.818 155.957 206.895 156.625 207.253C157.293 207.61 157.791 208.218 158.01 208.943L177.037 271.832C177.257 272.557 177.179 273.34 176.822 274.008C176.464 274.677 175.856 275.176 175.131 275.395C174.406 275.615 173.623 275.538 172.956 275.181C172.288 274.823 171.789 274.215 171.57 273.49ZM157.902 277.634L134.738 201.074C134.519 200.349 134.597 199.566 134.954 198.898C135.312 198.23 135.92 197.731 136.645 197.511C137.37 197.291 138.152 197.368 138.82 197.726C139.488 198.083 139.986 198.691 140.206 199.416L163.369 275.977C163.588 276.702 163.511 277.485 163.153 278.153C162.796 278.821 162.188 279.32 161.462 279.54C160.737 279.76 159.955 279.682 159.287 279.325C158.619 278.968 158.121 278.36 157.902 277.634ZM144.233 281.779L116.107 188.813C115.887 188.087 115.965 187.305 116.322 186.636C116.68 185.968 117.288 185.469 118.013 185.249C118.738 185.03 119.521 185.107 120.188 185.464C120.856 185.822 121.355 186.43 121.574 187.155L149.701 280.121C149.92 280.846 149.842 281.629 149.485 282.297C149.127 282.966 148.519 283.464 147.794 283.684C147.069 283.904 146.287 283.827 145.619 283.47C144.951 283.112 144.453 282.504 144.233 281.779ZM130.565 285.923L102.438 192.957C102.219 192.232 102.297 191.449 102.654 190.781C103.012 190.113 103.62 189.614 104.345 189.394C105.07 189.174 105.852 189.251 106.52 189.609C107.188 189.966 107.686 190.574 107.906 191.299L136.032 284.266C136.252 284.991 136.174 285.774 135.817 286.442C135.459 287.11 134.851 287.609 134.126 287.829C133.401 288.049 132.618 287.971 131.951 287.614C131.283 287.257 130.784 286.648 130.565 285.923ZM116.897 290.068L88.77 197.102C88.5506 196.376 88.6282 195.594 88.9857 194.925C89.3432 194.257 89.9514 193.758 90.6764 193.538C91.4014 193.319 92.1839 193.396 92.8517 193.753C93.5195 194.11 94.0179 194.719 94.2373 195.444L122.364 288.41C122.583 289.135 122.506 289.918 122.148 290.586C121.791 291.254 121.183 291.753 120.458 291.973C119.732 292.193 118.95 292.116 118.282 291.758C117.614 291.401 117.116 290.793 116.897 290.068ZM103.228 294.212L75.1017 201.246C74.8823 200.521 74.9599 199.738 75.3174 199.07C75.6749 198.402 76.2831 197.903 77.0081 197.683C77.7331 197.463 78.5156 197.54 79.1834 197.898C79.8512 198.255 80.3496 198.863 80.569 199.588L108.696 292.554C108.915 293.28 108.837 294.062 108.48 294.731C108.122 295.399 107.514 295.898 106.789 296.118C106.064 296.337 105.282 296.26 104.614 295.903C103.946 295.546 103.448 294.937 103.228 294.212ZM75.4966 251.874L61.4333 205.39C61.2139 204.665 61.2915 203.882 61.6491 203.214C62.0066 202.546 62.6147 202.047 63.3398 201.827C64.0648 201.607 64.8472 201.685 65.515 202.042C66.1828 202.399 66.6813 203.007 66.9007 203.733L80.964 250.216C81.1834 250.941 81.1058 251.724 80.7483 252.392C80.3907 253.06 79.7826 253.559 79.0576 253.779C78.3325 253.999 77.5501 253.922 76.8823 253.564C76.2145 253.207 75.716 252.599 75.4966 251.874Z" fill="#F472B6"/>
<path d="M109.542 170.65H133.911V178.778C133.911 183.267 130.275 186.905 125.789 186.905H117.667C113.181 186.905 109.542 183.267 109.542 178.778V170.65Z" fill="#F1F5F9"/>
<path d="M113.605 170.65H129.849V178.778C129.849 183.267 126.213 186.905 121.727 186.905C117.24 186.905 113.605 183.267 113.605 178.778V170.65Z" fill="white"/>
<path d="M182.647 170.65H207.014V178.778C207.014 183.267 203.378 186.905 198.892 186.905H190.77C186.283 186.905 182.647 183.267 182.647 178.778V170.65Z" fill="#F1F5F9"/>
<path d="M186.707 170.65H202.952V178.778C202.952 183.267 199.316 186.905 194.83 186.905C190.344 186.905 186.707 183.267 186.707 178.778V170.65Z" fill="white"/>
<path d="M207.014 174.713H109.543C96.0916 174.7 85.1887 163.791 85.176 150.33C85.176 148.086 86.9951 146.266 89.2383 146.266C91.4814 146.266 93.2981 148.086 93.2981 150.33C93.2981 159.309 100.572 166.585 109.543 166.585H207.015C215.987 166.585 223.259 159.309 223.259 150.331C223.259 149.253 223.687 148.219 224.449 147.457C225.211 146.694 226.244 146.266 227.321 146.266C229.564 146.266 231.382 148.086 231.382 150.331C231.369 163.791 220.466 174.7 207.015 174.713H207.014Z" fill="#4C1D95"/>
</svg>
