<svg width="20" height="20" viewBox="0 0 20 20" fill="none" xmlns="http://www.w3.org/2000/svg">
<g id="list-check" clip-path="url(#clip0_1929_1132)">
<g id="Group">
<path id="Vector" d="M3.3335 5C3.00496 5.00086 2.67951 4.93657 2.37598 4.81084C2.07245 4.6851 1.79686 4.50043 1.56516 4.2675L0.278498 3.1225C0.113401 2.97531 0.0135386 2.76856 0.000879902 2.54773C-0.0117788 2.32691 0.063803 2.1101 0.210998 1.945C0.358193 1.77991 0.564944 1.68004 0.785768 1.66738C1.00659 1.65473 1.2234 1.73031 1.3885 1.8775L2.70933 3.05584C2.78494 3.14075 2.87714 3.20929 2.98023 3.25724C3.08332 3.3052 3.19514 3.33154 3.3088 3.33467C3.42245 3.33779 3.53555 3.31762 3.64112 3.2754C3.74669 3.23318 3.8425 3.1698 3.92266 3.08917L6.926 0.230002C7.08749 0.0862276 7.29855 0.0108516 7.51458 0.0197949C7.73062 0.0287383 7.93472 0.121301 8.08378 0.277932C8.23284 0.434562 8.31519 0.642998 8.31342 0.859212C8.31166 1.07543 8.22593 1.28249 8.07433 1.43667L5.0835 4.28167C4.85331 4.51052 4.58027 4.69175 4.27999 4.81501C3.97971 4.93826 3.65809 5.00113 3.3335 5ZM20.0002 3.33334C20.0002 3.11232 19.9124 2.90036 19.7561 2.74408C19.5998 2.5878 19.3878 2.5 19.1668 2.5H10.8335C10.6125 2.5 10.4005 2.5878 10.2442 2.74408C10.088 2.90036 10.0002 3.11232 10.0002 3.33334C10.0002 3.55435 10.088 3.76631 10.2442 3.92259C10.4005 4.07887 10.6125 4.16667 10.8335 4.16667H19.1668C19.3878 4.16667 19.5998 4.07887 19.7561 3.92259C19.9124 3.76631 20.0002 3.55435 20.0002 3.33334ZM5.0835 10.9483L8.07433 8.10334C8.15781 8.02902 8.22548 7.93867 8.27333 7.83766C8.32117 7.73666 8.34821 7.62706 8.35283 7.51539C8.35746 7.40372 8.33957 7.29226 8.30024 7.18765C8.2609 7.08304 8.20093 6.9874 8.12388 6.90644C8.04683 6.82548 7.95428 6.76084 7.85175 6.71638C7.74921 6.67191 7.63877 6.64853 7.52701 6.64762C7.41525 6.64671 7.30445 6.66828 7.2012 6.71107C7.09795 6.75386 7.00436 6.81697 6.926 6.89667L3.926 9.75584C3.76736 9.90753 3.55632 9.99219 3.33683 9.99219C3.11734 9.99219 2.9063 9.90753 2.74766 9.75584L1.42266 8.435C1.2655 8.2832 1.05499 8.19921 0.836497 8.20111C0.618 8.20301 0.408989 8.29065 0.254483 8.44515C0.0999759 8.59966 0.0123351 8.80867 0.0104364 9.02717C0.00853775 9.24567 0.0925331 9.45617 0.244331 9.61334L1.56516 10.9342C2.03156 11.4007 2.66343 11.6639 3.32308 11.6666C3.98273 11.6692 4.6167 11.4111 5.08683 10.9483H5.0835ZM20.0002 10C20.0002 9.77899 19.9124 9.56703 19.7561 9.41075C19.5998 9.25447 19.3878 9.16667 19.1668 9.16667H10.8335C10.6125 9.16667 10.4005 9.25447 10.2442 9.41075C10.088 9.56703 10.0002 9.77899 10.0002 10C10.0002 10.221 10.088 10.433 10.2442 10.5893C10.4005 10.7455 10.6125 10.8333 10.8335 10.8333H19.1668C19.3878 10.8333 19.5998 10.7455 19.7561 10.5893C19.9124 10.433 20.0002 10.221 20.0002 10ZM5.0835 17.615L8.071 14.77C8.15447 14.6957 8.22215 14.6053 8.26999 14.5043C8.31784 14.4033 8.34488 14.2937 8.3495 14.1821C8.35412 14.0704 8.33624 13.9589 8.2969 13.8543C8.25757 13.7497 8.19759 13.6541 8.12055 13.5731C8.0435 13.4921 7.95095 13.4275 7.84841 13.383C7.74587 13.3386 7.63544 13.3152 7.52368 13.3143C7.41192 13.3134 7.30111 13.335 7.19786 13.3777C7.09461 13.4205 7.00102 13.4836 6.92266 13.5633L3.92266 16.4225C3.8425 16.5031 3.74669 16.5665 3.64112 16.6087C3.53555 16.651 3.42245 16.6711 3.3088 16.668C3.19514 16.6649 3.08332 16.6385 2.98023 16.5906C2.87714 16.5426 2.78494 16.4741 2.70933 16.3892L1.3885 15.2108C1.2234 15.0636 1.00659 14.9881 0.785768 15.0007C0.564944 15.0134 0.358193 15.1132 0.210998 15.2783C0.063803 15.4434 -0.0117788 15.6602 0.000879902 15.8811C0.0135386 16.1019 0.113401 16.3086 0.278498 16.4558L1.56516 17.6008C2.03156 18.0673 2.66343 18.3306 3.32308 18.3333C3.98273 18.3359 4.6167 18.0777 5.08683 17.615H5.0835ZM20.0002 16.6667C20.0002 16.4457 19.9124 16.2337 19.7561 16.0774C19.5998 15.9211 19.3878 15.8333 19.1668 15.8333H10.8335C10.6125 15.8333 10.4005 15.9211 10.2442 16.0774C10.088 16.2337 10.0002 16.4457 10.0002 16.6667C10.0002 16.8877 10.088 17.0996 10.2442 17.2559C10.4005 17.4122 10.6125 17.5 10.8335 17.5H19.1668C19.3878 17.5 19.5998 17.4122 19.7561 17.2559C19.9124 17.0996 20.0002 16.8877 20.0002 16.6667Z" fill="#020617"/>
</g>
</g>
<defs>
<clipPath id="clip0_1929_1132">
<rect width="20" height="20" fill="white"/>
</clipPath>
</defs>
</svg>
