<svg width="236" height="317" viewBox="0 0 236 317" fill="none" xmlns="http://www.w3.org/2000/svg">
<path d="M235.555 37.8419V38.3304C235.737 54.9386 226.718 70.2847 212.122 78.1966L21.7693 77.2609C8.14209 69.0516 -0.137273 54.2473 0.00172295 38.3304V37.8419C-0.000445777 36.4973 0.0808304 35.1538 0.245082 33.8193C0.405606 32.0725 0.663473 30.3351 1.01634 28.6169V28.5767C2.82161 18.0618 7.92911 8.39638 15.5973 0.983635C16.1247 0.569459 16.7473 0.294002 17.4084 0.182389C18.0694 0.0707759 18.7479 0.126559 19.3819 0.344651C20.0159 0.562743 20.5852 0.936202 21.0379 1.43096C21.4907 1.92572 21.8124 2.52603 21.9738 3.17714C26.4399 19.7577 39.842 35.1197 56.412 37.8017H56.4541L189.867 36.4207C200.735 27.6956 208.915 16.0724 213.462 2.89335C213.646 2.26215 213.981 1.68572 214.44 1.21467C214.898 0.743608 215.465 0.392327 216.09 0.191662C216.716 -0.00900367 217.381 -0.0529172 218.028 0.0637761C218.675 0.180469 219.283 0.454201 219.799 0.860941C227.555 8.27896 232.724 17.9954 234.541 28.5767C234.894 30.3087 235.151 32.0589 235.312 33.8193C235.476 35.153 235.559 36.4979 235.555 37.8419H235.555Z" fill="#FCE7F3"/>
<path d="M235.8 171.665C235.777 172.003 235.672 172.33 235.493 172.617C235.314 172.905 235.067 173.144 234.774 173.313C234.481 173.482 234.15 173.575 233.812 173.585C233.474 173.596 233.138 173.522 232.835 173.372L227.312 170.608L221.87 167.886C221.584 167.737 221.266 167.66 220.943 167.661C220.621 167.663 220.304 167.743 220.02 167.896C219.735 168.048 219.492 168.267 219.312 168.534C219.132 168.802 219.019 169.109 218.985 169.43C218.945 169.836 218.864 170.202 218.824 170.608C214.194 201.534 193.441 222.342 185.684 229.169C185.432 229.395 185.128 229.554 184.798 229.63C184.468 229.706 184.125 229.696 183.8 229.603C183.475 229.51 183.179 229.335 182.94 229.096C182.701 228.856 182.526 228.56 182.433 228.234C182.132 227.251 181.709 226.309 181.176 225.43C178.93 222.075 176.078 219.167 172.768 216.856C172.529 216.672 172.252 216.544 171.958 216.479C171.664 216.414 171.359 216.415 171.065 216.481C170.77 216.546 170.494 216.676 170.255 216.86C170.016 217.044 169.821 217.278 169.682 217.546C169.275 218.456 168.785 219.326 168.22 220.147C157.904 235.833 127.526 236.199 117.169 235.833H117.088C116.722 235.842 116.356 235.83 115.992 235.793C115.721 235.782 115.454 235.716 115.209 235.598C114.963 235.48 114.745 235.313 114.566 235.107C114.388 234.902 114.253 234.662 114.17 234.403C114.087 234.144 114.057 233.87 114.084 233.599C115.464 221.204 98.6086 219.618 94.3858 219.458C94.0837 219.437 93.7808 219.485 93.4996 219.598C93.2183 219.71 92.9658 219.884 92.7605 220.107C92.7202 220.187 92.6397 220.229 92.5976 220.31C91.0684 221.947 90.1112 224.036 89.8696 226.264C89.628 228.492 90.1151 230.738 91.2577 232.665C91.4117 232.978 91.4823 233.326 91.4629 233.674C91.4435 234.022 91.3346 234.36 91.1468 234.654C90.959 234.948 90.6986 235.189 90.3908 235.353C90.083 235.517 89.7381 235.598 89.3895 235.59C86.9123 235.509 84.5578 235.346 82.2834 235.061C39.3155 230.389 30.4619 198.569 28.7963 189.384C28.7367 189.074 28.6056 188.782 28.4136 188.531C28.2215 188.28 27.9737 188.078 27.6898 187.94C27.4059 187.801 27.0938 187.731 26.7781 187.735C26.4624 187.739 26.1519 187.816 25.8713 187.96C23.9589 188.911 22.238 190.207 20.7949 191.782C19.5807 193.146 18.5937 194.696 17.8718 196.374C17.6955 196.757 17.4046 197.075 17.0394 197.286C16.6742 197.496 16.2527 197.588 15.8332 197.548C15.4136 197.508 15.0169 197.338 14.6982 197.062C14.3795 196.786 14.1546 196.417 14.0548 196.008C13.6467 194.384 13.3233 192.717 13.0378 191.05C8.53004 164.839 16.6943 133.871 19.4545 124.647C19.5462 124.321 19.5558 123.976 19.4824 123.645C19.409 123.314 19.255 123.006 19.0339 122.748C18.8129 122.491 18.5317 122.292 18.2154 122.169C17.8991 122.047 17.5574 122.005 17.2208 122.046C15.0783 122.319 12.9693 122.809 10.9262 123.509C8.35231 124.402 5.9078 125.632 3.6563 127.166C3.32634 127.387 2.9391 127.505 2.54246 127.508C2.14581 127.51 1.75716 127.396 1.42454 127.18C1.09193 126.964 0.829938 126.655 0.670965 126.291C0.511992 125.927 0.463007 125.525 0.530066 125.134C0.570314 124.808 0.610562 124.525 0.65081 124.199C2.2994 111.735 6.55045 99.7582 13.1277 89.0459C19.7049 78.3336 28.4612 69.126 38.8273 62.0215C39.0792 61.8616 39.2916 61.6467 39.4486 61.393C39.6056 61.1392 39.7032 60.8531 39.7339 60.5562C39.7655 60.2594 39.7297 59.9593 39.629 59.6783C39.5284 59.3973 39.3655 59.1427 39.1526 58.9336C35.6192 55.4799 28.8768 55.6007 24.4911 56.1294H24.2478C24.0477 56.0816 23.8432 56.0546 23.6375 56.0489C23.3349 55.9593 23.0572 55.8007 22.8262 55.5855C22.5953 55.3703 22.4174 55.1045 22.3065 54.8088C22.1964 54.5129 22.1566 54.1954 22.1902 53.8814C22.2239 53.5675 22.33 53.2656 22.5003 52.9998C24.7327 49.329 27.767 46.2118 31.3756 43.8822C34.9841 41.5526 39.073 40.0711 43.3356 39.5489C44.6698 39.39 46.0121 39.3087 47.3557 39.3053C49.5913 39.2983 51.8199 39.503 54.0172 39.9146C54.3497 39.9785 54.693 39.957 55.015 39.8521C55.337 39.7472 55.6272 39.5623 55.8584 39.3147C56.0895 39.0671 56.2542 38.7649 56.3369 38.4363C56.4197 38.1078 56.4178 37.7636 56.3314 37.4359C54.4384 32.5048 51.6423 27.9705 48.0867 24.066C47.8799 23.8311 47.7346 23.5485 47.6638 23.2436C47.593 22.9386 47.5989 22.6209 47.6809 22.3188C47.8063 21.803 48.1248 21.355 48.5707 21.0674C49.0166 20.7798 49.5559 20.6746 50.0771 20.7734C53.5912 21.4252 57.0232 22.4612 60.3113 23.8628C62.1716 24.6733 64.0005 25.5543 65.7939 26.504C66.0976 26.6704 66.4387 26.7564 66.7849 26.7538C67.1311 26.7512 67.4709 26.6601 67.7721 26.4891C68.0732 26.3181 68.3257 26.073 68.5055 25.7769C68.6853 25.4808 68.7864 25.1437 68.7994 24.7975C68.8264 20.7393 69.8705 16.7527 71.836 13.2027C73.8014 9.65282 76.6255 6.65303 80.0496 4.47805C81.8868 3.24946 83.8306 2.18841 85.8575 1.30767C86.1865 1.16029 86.5489 1.10342 86.9073 1.14294C87.2656 1.18245 87.607 1.31691 87.8961 1.53245C88.1858 1.74711 88.413 2.0352 88.5543 2.36703C88.6957 2.69885 88.746 3.06239 88.7001 3.42016C87.9835 7.47201 88.2341 11.636 89.4316 15.5725C89.8938 16.8312 90.6128 17.98 91.5427 18.9456C91.7409 19.1409 91.977 19.2934 92.2365 19.3938C92.4959 19.4942 92.7732 19.5402 93.0511 19.5291C93.3293 19.5173 93.6021 19.4485 93.8526 19.3271C94.1032 19.2056 94.3262 19.034 94.508 18.8229C97.3908 15.4498 106.367 7.28221 126.389 6.30675H126.632C132.438 6.04169 138.257 6.31424 144.013 7.11924C144.424 7.16959 144.809 7.34394 145.117 7.61903C145.426 7.89412 145.643 8.25686 145.74 8.65881C145.837 9.06076 145.81 9.48279 145.661 9.86858C145.512 10.2544 145.249 10.5855 144.907 10.8179C141.187 13.1527 138.092 16.3608 135.891 20.1637C135.723 20.439 135.633 20.7556 135.633 21.0785C135.633 21.4014 135.723 21.718 135.891 21.9933C136.09 22.4057 136.425 22.7364 136.839 22.9291C137.254 23.1219 137.723 23.1647 138.166 23.0503C140.5 22.4841 142.877 22.1171 145.273 21.953C158.555 20.8151 182.11 24.2285 207.694 52.7965C207.962 53.0845 208.14 53.444 208.207 53.8313C208.275 54.2186 208.228 54.6172 208.073 54.9786C207.919 55.34 207.663 55.6487 207.336 55.8673C207.01 56.0858 206.627 56.2049 206.234 56.21C204.003 56.1856 201.815 56.8206 199.944 58.0354C198.073 59.2501 196.601 60.9906 195.715 63.0387C195.468 63.5151 195.415 64.0682 195.567 64.5827C195.718 65.0973 196.062 65.5336 196.527 65.8007C202.415 68.9308 222.967 81.9757 230.681 114.081C230.758 114.433 230.74 114.799 230.629 115.142C230.518 115.484 230.318 115.791 230.049 116.031C229.781 116.271 229.453 116.434 229.1 116.506C228.748 116.577 228.382 116.554 228.042 116.437C226.111 115.795 224.145 115.267 222.153 114.853C220.65 114.568 219.027 114.284 217.279 114.081C216.859 114.037 216.436 114.122 216.065 114.326C215.695 114.529 215.396 114.841 215.208 115.219C215.008 115.599 214.936 116.033 215.001 116.458C215.067 116.882 215.268 117.274 215.573 117.575C222.671 124.578 228.158 133.045 231.652 142.387C235.145 151.729 236.561 161.72 235.8 171.665V171.665Z" fill="#6D28D9"/>
<path d="M227.311 170.608L221.87 167.886C221.584 167.737 221.266 167.66 220.943 167.661C220.621 167.663 220.304 167.743 220.02 167.896C219.735 168.048 219.492 168.267 219.312 168.534C219.132 168.802 219.019 169.109 218.985 169.43C218.945 169.836 218.864 170.202 218.824 170.608L213.339 167.886C213.053 167.742 212.736 167.668 212.416 167.672C212.095 167.676 211.78 167.757 211.497 167.908C211.214 168.059 210.972 168.277 210.791 168.542C210.61 168.807 210.495 169.111 210.457 169.43C207.041 190.786 196.762 210.446 181.176 225.43C178.93 222.075 176.079 219.167 172.769 216.856C172.529 216.672 172.253 216.544 171.958 216.479C171.664 216.414 171.359 216.415 171.065 216.481C170.771 216.546 170.494 216.676 170.255 216.86C170.016 217.044 169.821 217.278 169.683 217.546C169.275 218.456 168.786 219.326 168.22 220.147C166.967 218.964 165.638 217.864 164.24 216.856C164.004 216.675 163.73 216.548 163.439 216.484C163.148 216.42 162.847 216.421 162.556 216.487C162.265 216.553 161.993 216.682 161.758 216.865C161.522 217.048 161.33 217.28 161.195 217.546C154.33 232.257 131.466 235.387 117.17 235.833H117.087C116.722 235.842 116.356 235.83 115.992 235.793C115.721 235.782 115.454 235.715 115.209 235.597C114.964 235.48 114.745 235.313 114.567 235.107C114.388 234.902 114.253 234.662 114.17 234.403C114.087 234.144 114.058 233.87 114.084 233.599C115.464 221.204 98.609 219.618 94.3863 219.458C94.0841 219.437 93.7813 219.485 93.5 219.598C93.2187 219.71 92.9662 219.884 92.7609 220.107C92.7206 220.187 92.6402 220.229 92.598 220.31C90.3797 219.834 88.1248 219.549 85.8579 219.458C85.5557 219.437 85.2529 219.485 84.9716 219.597C84.6903 219.71 84.4378 219.884 84.2326 220.107C82.6309 221.74 81.6148 223.858 81.343 226.13C81.0712 228.402 81.559 230.7 82.7303 232.665C82.948 233.053 83.0226 233.506 82.941 233.944C82.8594 234.382 82.6268 234.777 82.2838 235.061C39.3159 230.389 30.4623 198.569 28.7967 189.383C28.737 189.073 28.6059 188.781 28.4138 188.531C28.2216 188.28 27.9738 188.078 27.69 187.94C27.4061 187.802 27.094 187.732 26.7783 187.735C26.4627 187.739 26.1523 187.816 25.8717 187.961C23.9593 188.912 22.2385 190.207 20.7953 191.782C20.5826 190.991 20.4069 190.191 20.2688 189.384C20.2088 189.074 20.0775 188.782 19.8853 188.532C19.6932 188.281 19.4454 188.079 19.1617 187.941C18.878 187.803 18.566 187.733 18.2505 187.736C17.935 187.739 17.6246 187.816 17.3438 187.96C15.7515 188.751 14.2976 189.795 13.0382 191.05C8.53047 164.839 16.6947 133.871 19.455 124.647C19.5466 124.321 19.5562 123.976 19.4828 123.645C19.4095 123.314 19.2554 123.006 19.0344 122.748C18.8133 122.491 18.5321 122.292 18.2158 122.169C17.8995 122.047 17.5578 122.005 17.2212 122.046C15.0788 122.319 12.9697 122.809 10.9266 123.509C10.7861 123.041 10.485 122.638 10.0763 122.37C9.66772 122.103 9.1778 121.988 8.69287 122.046C5.9259 122.389 3.21969 123.114 0.651245 124.199C2.29983 111.735 6.55089 99.7582 13.1281 89.0459C19.7054 78.3336 28.4616 69.126 38.8278 62.0215C39.0797 61.8616 39.2921 61.6467 39.4491 61.3929C39.6061 61.1392 39.7036 60.8531 39.7343 60.5562C39.7659 60.2594 39.7301 59.9592 39.6294 59.6782C39.5288 59.3973 39.3659 59.1427 39.153 58.9336C35.6196 55.4799 28.8772 55.6007 24.4916 56.1294H24.2482C24.0481 56.0816 23.8436 56.0546 23.6379 56.0488C23.3353 55.9593 23.0576 55.8007 22.8267 55.5855C22.5957 55.3703 22.4178 55.1044 22.307 54.8088C22.1969 54.5129 22.157 54.1954 22.1907 53.8814C22.2243 53.5675 22.3304 53.2656 22.5007 52.9998C24.7331 49.3289 27.7675 46.2117 31.376 43.8821C34.9845 41.5525 39.0735 40.071 43.336 39.5488C44.1475 39.6715 44.879 39.7924 45.4874 39.9146C45.8248 39.9776 46.1727 39.9549 46.4991 39.8486C46.8255 39.7422 47.12 39.5556 47.3557 39.3058C49.5918 39.2983 51.8204 39.5029 54.0176 39.9146C54.3502 39.9785 54.6935 39.957 55.0155 39.8521C55.3375 39.7472 55.6276 39.5623 55.8588 39.3147C56.09 39.0671 56.2546 38.7649 56.3373 38.4363C56.4201 38.1077 56.4182 37.7635 56.3319 37.4359C54.4389 32.5048 51.6427 27.9705 48.0871 24.066C47.8804 23.8311 47.735 23.5485 47.6642 23.2435C47.5934 22.9386 47.5993 22.6209 47.6814 22.3188C51.0037 23.4351 54.2238 24.8353 57.3062 26.5039C57.6067 26.6742 57.9463 26.763 58.2916 26.7618C58.6369 26.7606 58.9759 26.6693 59.2751 26.4969C59.5751 26.3252 59.8249 26.078 59.9998 25.7798C60.1746 25.4816 60.2685 25.1427 60.272 24.797C60.2659 24.4846 60.279 24.1737 60.3117 23.8627C62.1721 24.6733 64.0009 25.5543 65.7943 26.5039C66.098 26.6704 66.4391 26.7564 66.7854 26.7538C67.1316 26.7512 67.4714 26.6601 67.7725 26.4891C68.0736 26.3181 68.3261 26.073 68.5059 25.7769C68.6857 25.4808 68.7869 25.1437 68.7998 24.7975C68.8268 20.7393 69.8708 16.7527 71.8362 13.2028C73.8016 9.65288 76.6256 6.65306 80.0496 4.47803C79.5615 8.9484 79.5212 15.5322 83.0148 18.9456C83.2174 19.1401 83.4572 19.2915 83.7198 19.3908C83.9824 19.4901 84.2624 19.5353 84.5428 19.5235C84.8236 19.5123 85.0992 19.4445 85.3531 19.3241C85.6069 19.2037 85.8339 19.0333 86.0203 18.8229C87.0514 17.6332 88.1936 16.5448 89.4315 15.5725C89.8938 16.8312 90.6128 17.9799 91.5427 18.9456C91.7409 19.1409 91.977 19.2934 92.2364 19.3938C92.4959 19.4941 92.7731 19.5402 93.0511 19.5291C93.3292 19.5173 93.602 19.4485 93.8526 19.327C94.1032 19.2056 94.3262 19.034 94.5079 18.8229C97.3908 15.4498 106.367 7.28219 126.388 6.30673H126.632C129.394 6.42755 132.359 6.71321 135.485 7.11923C135.896 7.16957 136.281 7.34392 136.589 7.61901C136.898 7.8941 137.115 8.25684 137.212 8.65879C137.31 9.06074 137.282 9.48278 137.133 9.86856C136.984 10.2543 136.721 10.5855 136.379 10.8178C132.667 13.1633 129.575 16.369 127.363 20.1637C127.18 20.5077 127.101 20.8976 127.136 21.2857C127.171 21.6739 127.318 22.0435 127.559 22.3496C127.8 22.6556 128.125 22.8848 128.494 23.0093C128.863 23.1337 129.26 23.1479 129.637 23.0502C131.695 22.5513 133.784 22.1981 135.891 21.9933C136.09 22.4056 136.425 22.7364 136.839 22.9291C137.254 23.1218 137.723 23.1647 138.166 23.0502C140.5 22.4841 142.877 22.117 145.273 21.953C158.96 23.0086 178.414 29.6322 199.166 52.7965C199.434 53.0846 199.612 53.4442 199.679 53.8317C199.746 54.2192 199.7 54.6179 199.545 54.9794C199.39 55.3408 199.133 55.6495 198.807 55.868C198.48 56.0864 198.097 56.2052 197.704 56.2099C195.476 56.1964 193.293 56.8358 191.424 58.0493C189.555 59.2628 188.082 60.9973 187.187 63.0387C186.957 63.5221 186.917 64.0742 187.075 64.5858C187.232 65.0973 187.576 65.5309 188.038 65.8007C193.927 68.9308 214.436 81.9757 222.153 114.081C222.235 114.332 222.235 114.601 222.153 114.853C220.65 114.568 219.027 114.284 217.279 114.081C216.859 114.037 216.436 114.122 216.065 114.326C215.695 114.529 215.396 114.841 215.208 115.219C213.08 114.711 210.924 114.331 208.751 114.081C208.328 114.033 207.901 114.117 207.527 114.322C207.154 114.528 206.854 114.843 206.667 115.226C206.48 115.609 206.415 116.04 206.483 116.461C206.551 116.882 206.747 117.271 207.045 117.575C214.017 124.45 219.434 132.742 222.93 141.891C226.426 151.039 227.921 160.832 227.312 170.608H227.311Z" fill="#8B5CF6"/>
<path d="M17.5461 29.998C12.241 31.7522 7.17851 34.1698 2.47885 37.1934C1.82417 37.6506 1.04291 37.8913 0.244622 37.8818C0.161425 37.8886 0.0778251 37.8748 0.00126298 37.8415C-0.000905749 36.4969 0.0803704 35.1534 0.244622 33.8188C0.405614 32.0721 0.663481 30.3347 1.01635 28.6165V28.5762C5.42913 25.9992 10.0975 23.8879 14.9463 22.2762C15.9699 21.9314 17.0884 22.0075 18.0559 22.4878C19.0234 22.9681 19.7607 23.8132 20.1056 24.8374C20.8221 26.97 19.6778 29.2806 17.5461 29.998ZM235.555 37.842C235.478 37.8748 235.396 37.8897 235.312 37.8823C234.513 37.8914 233.732 37.6503 233.078 37.1929C228.378 34.1691 223.316 31.7517 218.011 29.998C217.333 29.7701 216.728 29.3677 216.256 28.8315C215.784 28.2953 215.461 27.644 215.32 26.9433C215.179 26.2422 215.225 25.5164 215.453 24.8387C215.681 24.1611 216.083 23.5554 216.619 23.0825C217.155 22.6097 217.806 22.2863 218.507 22.1448C219.208 22.0034 219.933 22.0489 220.61 22.2767C225.459 23.8883 230.128 25.9997 234.54 28.5767C234.893 30.3088 235.151 32.0589 235.312 33.8193C235.476 35.153 235.559 36.498 235.555 37.842H235.555Z" fill="#F9A8D4"/>
<path d="M117.778 101.564C117.778 121.762 101.415 138.138 81.2271 138.138C79.87 138.139 78.514 138.058 77.1667 137.895C93.148 136.092 106.075 124.044 109.007 108.22C111.941 92.3949 104.191 76.513 89.9174 69.0938C90.889 68.4137 91.8121 67.6667 92.68 66.8582C107.67 71.7715 117.8 85.7788 117.778 101.564Z" fill="#E6E7E8"/>
<path d="M109.656 101.564C109.659 120.189 95.6654 135.839 77.1668 137.895C70.4618 137.156 64.0929 134.571 58.7674 130.428C53.442 126.286 49.3684 120.747 46.9991 114.427C44.6306 108.107 44.059 101.254 45.3479 94.6285C46.6368 88.0032 49.7356 81.865 54.3004 76.8956C54.5622 76.5639 54.8477 76.2515 55.1545 75.9609C56.7686 76.3505 58.4117 76.6085 60.0684 76.7326H60.1485C64.3246 77.121 68.5344 76.9295 72.6581 76.1636C78.8684 75.1321 84.7673 72.7159 89.9179 69.0938C102.056 75.3624 109.676 87.895 109.656 101.564Z" fill="white"/>
<path d="M190.881 101.564C190.881 121.762 174.517 138.138 154.33 138.138C152.973 138.139 151.617 138.058 150.27 137.895C156.969 137.155 163.333 134.573 168.655 130.435C173.977 126.297 178.05 120.765 180.423 114.453C185.259 101.578 182.459 87.0774 173.174 76.9359C175.635 76.899 178.086 76.5998 180.484 76.0433C187.158 82.8582 190.891 92.0223 190.881 101.564Z" fill="#E6E7E8"/>
<path d="M182.759 101.564C182.763 120.189 168.768 135.839 150.27 137.895C133.153 135.963 119.709 122.337 117.996 105.187C116.283 88.0379 126.767 72.0188 143.162 66.7355C148.842 71.7333 155.831 75.0042 163.306 76.1637C164.768 76.4494 166.229 76.6119 167.651 76.7748H167.732C169.542 76.9284 171.359 76.9814 173.174 76.9359C179.356 83.6434 182.78 92.4392 182.759 101.564Z" fill="white"/>
<path d="M101.534 101.564C101.534 112.786 92.4422 121.883 81.2271 121.883C70.012 121.883 60.9202 112.786 60.9202 101.564C60.9202 90.3414 70.0115 81.2438 81.2266 81.2438C92.4418 81.2438 101.534 90.3409 101.534 101.563V101.564ZM174.636 101.564C174.636 112.786 165.545 121.883 154.33 121.883C143.116 121.883 134.023 112.786 134.023 101.564C134.023 90.3414 143.116 81.2438 154.329 81.2438C165.545 81.2438 174.636 90.3409 174.636 101.563V101.564Z" fill="#9333EA"/>
<path d="M93.4115 101.564C93.4115 108.297 87.9561 113.756 81.2267 113.756C74.4974 113.756 69.0424 108.297 69.0424 101.564C69.0424 94.83 74.4978 89.3711 81.2272 89.3711C87.9565 89.3711 93.4115 94.83 93.4115 101.564ZM166.514 101.564C166.514 108.297 161.059 113.756 154.33 113.756C147.601 113.756 142.147 108.297 142.147 101.564C142.147 94.83 147.601 89.3711 154.33 89.3711C161.059 89.3711 166.514 94.83 166.514 101.564H166.514Z" fill="#2C2F38"/>
<path d="M77.1667 89.3711C77.1667 93.8602 73.5285 97.5007 69.0423 97.5007C64.5579 97.5007 60.9202 93.8602 60.9202 89.3711C60.9202 84.8839 64.5579 81.2438 69.0423 81.2438C73.5285 81.2438 77.1667 84.8839 77.1667 89.3711ZM150.27 89.3711C150.27 93.8602 146.631 97.5007 142.147 97.5007C137.661 97.5007 134.023 93.8602 134.023 89.3711C134.023 84.8839 137.661 81.2438 142.147 81.2438C146.631 81.2438 150.27 84.8839 150.27 89.3711Z" fill="white"/>
<path fill-rule="evenodd" clip-rule="evenodd" d="M166.382 173.234L192.855 260.729C193.513 262.904 193.281 265.252 192.208 267.257C191.136 269.262 189.311 270.758 187.137 271.418L44.9971 314.514C42.8222 315.173 40.475 314.941 38.4717 313.869C36.4684 312.797 34.9731 310.973 34.3149 308.797L2.87844 204.897C2.22022 202.722 2.45294 200.374 3.52537 198.369C4.59779 196.365 6.4221 194.868 8.59697 194.209L74.1998 174.318L166.382 173.234Z" fill="#FBCFE8"/>
<path fill-rule="evenodd" clip-rule="evenodd" d="M168.145 195.396L72.9916 192.451L62.5262 177.826L78.1997 172.981L166.369 173.232L172.206 192.96C172.139 193.412 171.963 193.842 171.695 194.213C171.427 194.584 171.074 194.885 170.665 195.09C170.257 195.296 169.805 195.401 169.347 195.395C168.89 195.39 168.548 195.611 168.145 195.396Z" fill="#F9A8D4"/>
<path d="M176.705 256.685L169.26 232.077C168.803 230.566 167.209 229.713 165.699 230.171L141.097 237.63C139.587 238.088 138.734 239.683 139.191 241.193L146.636 265.802C147.093 267.312 148.688 268.166 150.197 267.708L174.799 260.249C176.309 259.791 177.162 258.196 176.705 256.685Z" fill="#F9A8D4"/>
<path fill-rule="evenodd" clip-rule="evenodd" d="M131.07 273.49L112.043 210.601C111.824 209.876 111.901 209.093 112.259 208.425C112.616 207.757 113.224 207.258 113.949 207.038C114.675 206.818 115.457 206.895 116.125 207.253C116.793 207.61 117.291 208.218 117.51 208.943L136.537 271.832C136.757 272.557 136.679 273.34 136.322 274.008C135.964 274.677 135.356 275.176 134.631 275.395C133.906 275.615 133.123 275.538 132.456 275.181C131.788 274.823 131.289 274.215 131.07 273.49ZM117.402 277.634L94.2385 201.074C94.0191 200.349 94.0967 199.566 94.4542 198.898C94.8117 198.23 95.4199 197.731 96.1449 197.511C96.8699 197.291 97.6524 197.368 98.3202 197.726C98.988 198.083 99.4864 198.691 99.7058 199.416L122.869 275.977C123.088 276.702 123.011 277.485 122.653 278.153C122.296 278.821 121.688 279.32 120.962 279.54C120.237 279.76 119.455 279.682 118.787 279.325C118.119 278.968 117.621 278.36 117.402 277.634ZM103.733 281.779L75.6066 188.813C75.3872 188.087 75.4648 187.305 75.8224 186.636C76.1799 185.968 76.788 185.469 77.5131 185.249C78.2381 185.03 79.0205 185.107 79.6883 185.464C80.3562 185.822 80.8546 186.43 81.074 187.155L109.201 280.121C109.42 280.846 109.342 281.629 108.985 282.297C108.627 282.966 108.019 283.464 107.294 283.684C106.569 283.904 105.787 283.827 105.119 283.47C104.451 283.112 103.953 282.504 103.733 281.779ZM90.0649 285.923L61.9383 192.957C61.7189 192.232 61.7965 191.449 62.154 190.781C62.5116 190.113 63.1197 189.614 63.8447 189.394C64.5697 189.174 65.3522 189.251 66.02 189.609C66.6878 189.966 67.1862 190.574 67.4056 191.299L95.5322 284.266C95.7516 284.991 95.6741 285.774 95.3165 286.442C94.959 287.11 94.3509 287.609 93.6258 287.829C92.9008 288.049 92.1183 287.971 91.4505 287.614C90.7827 287.257 90.2843 286.648 90.0649 285.923ZM76.3966 290.068L48.27 197.102C48.0506 196.376 48.1282 195.594 48.4857 194.925C48.8432 194.257 49.4514 193.758 50.1764 193.538C50.9014 193.319 51.6839 193.396 52.3517 193.753C53.0195 194.11 53.5179 194.719 53.7373 195.444L81.8639 288.41C82.0833 289.135 82.0057 289.918 81.6482 290.586C81.2907 291.254 80.6825 291.753 79.9575 291.973C79.2325 292.193 78.45 292.116 77.7822 291.758C77.1144 291.401 76.616 290.793 76.3966 290.068ZM62.7283 294.212L34.6017 201.246C34.3823 200.521 34.4599 199.738 34.8174 199.07C35.1749 198.402 35.7831 197.903 36.5081 197.683C37.2331 197.463 38.0156 197.54 38.6834 197.898C39.3512 198.255 39.8496 198.863 40.069 199.588L68.1956 292.554C68.415 293.28 68.3374 294.062 67.9799 294.731C67.6224 295.399 67.0142 295.898 66.2892 296.118C65.5642 296.337 64.7817 296.26 64.1139 295.903C63.4461 295.546 62.9477 294.937 62.7283 294.212ZM34.9966 251.874L20.9333 205.39C20.7139 204.665 20.7915 203.882 21.1491 203.214C21.5066 202.546 22.1147 202.047 22.8397 201.827C23.5648 201.607 24.3472 201.685 25.015 202.042C25.6828 202.399 26.1813 203.007 26.4007 203.733L40.464 250.216C40.6834 250.941 40.6058 251.724 40.2483 252.392C39.8907 253.06 39.2826 253.559 38.5576 253.779C37.8325 253.999 37.0501 253.922 36.3823 253.564C35.7145 253.207 35.216 252.599 34.9966 251.874Z" fill="#F472B6"/>
<path d="M69.0424 170.65H93.4111V178.778C93.4111 183.267 89.7752 186.905 85.2889 186.905H77.1668C72.6806 186.905 69.0424 183.267 69.0424 178.778V170.65Z" fill="#F1F5F9"/>
<path d="M73.1046 170.65H89.3493V178.778C89.3493 183.267 85.713 186.905 81.2267 186.905C76.7405 186.905 73.1046 183.267 73.1046 178.778V170.65Z" fill="white"/>
<path d="M142.147 170.65H166.514V178.778C166.514 183.267 162.878 186.905 158.392 186.905H150.27C145.783 186.905 142.147 183.267 142.147 178.778V170.65Z" fill="#F1F5F9"/>
<path d="M146.207 170.65H162.452V178.778C162.452 183.267 158.816 186.905 154.33 186.905C149.844 186.905 146.207 183.267 146.207 178.778V170.65Z" fill="white"/>
<path d="M166.514 174.713H69.0429C55.5916 174.7 44.6887 163.791 44.676 150.33C44.676 148.086 46.4951 146.266 48.7383 146.266C50.9814 146.266 52.7981 148.086 52.7981 150.33C52.7981 159.309 60.0723 166.585 69.0429 166.585H166.515C175.487 166.585 182.759 159.309 182.759 150.331C182.759 149.253 183.187 148.219 183.949 147.457C184.711 146.694 185.744 146.266 186.821 146.266C189.064 146.266 190.882 148.086 190.882 150.331C190.869 163.791 179.966 174.7 166.515 174.713H166.514Z" fill="#4C1D95"/>
</svg>
