<svg width="291" height="74" viewBox="0 0 291 74" fill="none" xmlns="http://www.w3.org/2000/svg">
<g id="Logo + baseline">
<g id="Logo">
<g id="Group">
<path id="Vector" d="M54.8963 8.83377V8.94778C54.9388 12.8248 52.8367 16.4071 49.4353 18.2541L5.07335 18.0357C1.89752 16.1193 -0.0319915 12.6634 0.000401535 8.94778V8.83377C-0.000103889 8.51987 0.0188376 8.20626 0.0571166 7.89472C0.0945268 7.48696 0.154623 7.08139 0.23686 6.6803V6.67089C0.657579 4.21632 1.84789 1.96004 3.63497 0.229618C3.75787 0.132934 3.90297 0.0686314 4.05703 0.0425766C4.2111 0.0165218 4.36921 0.0295439 4.51697 0.0804549C4.66472 0.131366 4.7974 0.218545 4.90291 0.334041C5.00842 0.449537 5.0834 0.589673 5.12101 0.741667C6.16184 4.6122 9.28521 8.1983 13.1469 8.82436H13.1567L44.2486 8.50198C46.7814 6.46522 48.6877 3.75192 49.7475 0.67542C49.7903 0.528074 49.8686 0.393513 49.9754 0.28355C50.0822 0.173587 50.2143 0.0915842 50.3601 0.0447412C50.5059 -0.0021018 50.6609 -0.0123529 50.8116 0.0148878C50.9623 0.0421285 51.104 0.106028 51.2243 0.200977C53.032 1.93263 54.2364 4.20083 54.6599 6.67089C54.7422 7.07522 54.8022 7.48378 54.8397 7.89472C54.8779 8.20606 54.8971 8.52002 54.8964 8.83377H54.8963Z" fill="#FCE7F3"/>
<path id="Vector_2" d="M54.9534 40.0732C54.9481 40.1521 54.9235 40.2285 54.8818 40.2956C54.8401 40.3627 54.7826 40.4185 54.7143 40.458C54.6459 40.4973 54.5689 40.5192 54.49 40.5215C54.4112 40.5239 54.333 40.5068 54.2623 40.4717L52.9752 39.8265L51.7069 39.1911C51.6403 39.1563 51.5662 39.1382 51.491 39.1386C51.4159 39.139 51.342 39.1578 51.2757 39.1933C51.2095 39.2288 51.1528 39.28 51.1108 39.3424C51.0688 39.4048 51.0426 39.4766 51.0346 39.5515C51.0252 39.6463 51.0065 39.7317 50.9971 39.8265C49.918 47.0459 45.0815 51.9033 43.2738 53.4968C43.2152 53.5496 43.1441 53.5867 43.0673 53.6044C42.9905 53.6221 42.9104 53.62 42.8347 53.5982C42.7589 53.5764 42.6899 53.5356 42.6342 53.4797C42.5785 53.4238 42.5379 53.3547 42.5162 53.2787C42.4459 53.0492 42.3475 52.8293 42.2231 52.6241C41.6997 51.8408 41.0352 51.162 40.2637 50.6225C40.208 50.5797 40.1435 50.5497 40.0749 50.5346C40.0063 50.5195 39.9353 50.5196 39.8667 50.535C39.7981 50.5503 39.7337 50.5804 39.678 50.6234C39.6224 50.6664 39.5768 50.7211 39.5445 50.7836C39.4496 50.996 39.3355 51.1992 39.2037 51.3908C36.7995 55.0525 29.72 55.138 27.3064 55.0525H27.2873C27.202 55.0547 27.1168 55.0518 27.0321 55.0431C26.9687 55.0406 26.9066 55.0251 26.8494 54.9976C26.7923 54.97 26.7413 54.9311 26.6998 54.8831C26.6581 54.8352 26.6266 54.7792 26.6073 54.7187C26.588 54.6582 26.5812 54.5943 26.5873 54.5311C26.909 51.6376 22.9808 51.2674 21.9967 51.2299C21.9263 51.2252 21.8557 51.2363 21.7901 51.2626C21.7246 51.2888 21.6657 51.3294 21.6179 51.3814C21.6085 51.4002 21.5897 51.41 21.5799 51.4288C21.2235 51.811 21.0005 52.2987 20.9442 52.8187C20.8878 53.3388 21.0014 53.8631 21.2677 54.313C21.3035 54.3861 21.32 54.4672 21.3155 54.5485C21.311 54.6299 21.2856 54.7086 21.2418 54.7773C21.198 54.8459 21.1374 54.9021 21.0656 54.9404C20.9939 54.9786 20.9135 54.9977 20.8323 54.9958C20.255 54.977 19.7063 54.9389 19.1762 54.8723C9.16248 53.7817 7.09914 46.3536 6.71097 44.2095C6.69708 44.1371 6.66654 44.0689 6.62178 44.0104C6.57702 43.9519 6.51927 43.9046 6.45311 43.8724C6.38695 43.8401 6.3142 43.8238 6.24063 43.8246C6.16707 43.8254 6.09471 43.8434 6.02929 43.8772C5.58361 44.0992 5.18256 44.4016 4.84624 44.7693C4.56326 45.0877 4.33324 45.4496 4.165 45.8412C4.12392 45.9306 4.05613 46.005 3.97101 46.0541C3.8859 46.1032 3.78767 46.1246 3.68991 46.1153C3.59212 46.1059 3.49968 46.0663 3.42541 46.0018C3.35113 45.9374 3.29872 45.8514 3.27545 45.7557C3.18034 45.3766 3.10498 44.9876 3.03845 44.5985C1.98791 38.4797 3.89059 31.2506 4.53387 29.0975C4.55524 29.0213 4.55747 28.9409 4.54037 28.8635C4.52326 28.7862 4.48736 28.7142 4.43585 28.6542C4.38433 28.5941 4.3188 28.5477 4.24509 28.5191C4.17137 28.4905 4.09174 28.4806 4.01329 28.4903C3.514 28.5539 3.02247 28.6684 2.54633 28.8319C1.94649 29.0403 1.37679 29.3273 0.852078 29.6856C0.775181 29.737 0.684935 29.7647 0.592496 29.7652C0.500058 29.7658 0.409482 29.7392 0.331966 29.6887C0.254449 29.6383 0.193392 29.5661 0.156344 29.4812C0.119295 29.3963 0.107879 29.3024 0.123507 29.2111C0.132887 29.135 0.142267 29.0689 0.151646 28.9929C0.535852 26.0834 1.52656 23.2874 3.05939 20.7868C4.59223 18.2861 6.63287 16.1367 9.04872 14.4782C9.10742 14.4409 9.15692 14.3907 9.19351 14.3315C9.2301 14.2723 9.25283 14.2055 9.25998 14.1362C9.26736 14.0669 9.25901 13.9968 9.23555 13.9312C9.21209 13.8656 9.17414 13.8062 9.12452 13.7574C8.30106 12.9512 6.72973 12.9794 5.70765 13.1028H5.65094C5.6043 13.0916 5.55664 13.0853 5.50872 13.084C5.43819 13.0631 5.37347 13.026 5.31965 12.9758C5.26582 12.9256 5.22436 12.8635 5.19853 12.7945C5.17287 12.7254 5.16359 12.6513 5.17143 12.578C5.17927 12.5047 5.204 12.4343 5.24368 12.3722C5.76395 11.5153 6.47111 10.7876 7.31208 10.2438C8.15304 9.69999 9.10598 9.35415 10.0994 9.23225C10.4103 9.19516 10.7231 9.17618 11.0363 9.1754C11.5573 9.17376 12.0767 9.22153 12.5887 9.31762C12.6662 9.33255 12.7462 9.32753 12.8213 9.30304C12.8963 9.27855 12.9639 9.23539 13.0178 9.17759C13.0717 9.11979 13.1101 9.04924 13.1293 8.97254C13.1486 8.89584 13.1482 8.81549 13.1281 8.739C12.6869 7.58789 12.0353 6.52942 11.2066 5.61795C11.1584 5.56311 11.1246 5.49714 11.1081 5.42596C11.0916 5.35478 11.0929 5.2806 11.1121 5.21008C11.1413 5.08967 11.2155 4.9851 11.3194 4.91797C11.4233 4.85083 11.549 4.82626 11.6705 4.84933C12.4895 5.00149 13.2893 5.24333 14.0556 5.57051C14.4891 5.75971 14.9153 5.96538 15.3333 6.18706C15.4041 6.22592 15.4836 6.246 15.5643 6.24539C15.6449 6.24478 15.7241 6.22351 15.7943 6.1836C15.8645 6.14369 15.9233 6.08646 15.9652 6.01734C16.0071 5.94823 16.0307 5.86952 16.0337 5.78871C16.04 4.84136 16.2833 3.91073 16.7414 3.08205C17.1995 2.25336 17.8576 1.55309 18.6556 1.04537C19.0838 0.758569 19.5368 0.510879 20.0091 0.30528C20.0858 0.270876 20.1703 0.257601 20.2538 0.266825C20.3373 0.276049 20.4169 0.307438 20.4842 0.357753C20.5517 0.407861 20.6047 0.475114 20.6376 0.552574C20.6706 0.630035 20.6823 0.714899 20.6716 0.798417C20.5046 1.74428 20.563 2.71631 20.8421 3.63524C20.9498 3.92908 21.1174 4.19724 21.3341 4.42266C21.3803 4.46824 21.4353 4.50385 21.4958 4.52728C21.5562 4.55071 21.6208 4.56146 21.6856 4.55887C21.7504 4.55611 21.814 4.54005 21.8724 4.5117C21.9308 4.48334 21.9828 4.44329 22.0251 4.39402C22.697 3.6066 24.7889 1.69997 29.455 1.47226H29.5116C30.8647 1.41038 32.2209 1.47401 33.5624 1.66193C33.658 1.67368 33.7478 1.71438 33.8197 1.77859C33.8916 1.84281 33.9422 1.92749 33.9649 2.02132C33.9875 2.11515 33.9811 2.21367 33.9464 2.30372C33.9117 2.39378 33.8504 2.47109 33.7707 2.52532C32.9037 3.07036 32.1824 3.81925 31.6695 4.707C31.6302 4.77126 31.6094 4.84517 31.6094 4.92055C31.6094 4.99593 31.6302 5.06984 31.6695 5.13411C31.7158 5.23036 31.7939 5.30757 31.8905 5.35256C31.9872 5.39755 32.0964 5.40755 32.1996 5.38084C32.7435 5.24868 33.2977 5.16299 33.856 5.1247C36.9512 4.85906 42.4408 5.65588 48.4033 12.3248C48.4657 12.392 48.5072 12.4759 48.5229 12.5663C48.5385 12.6567 48.5277 12.7498 48.4917 12.8341C48.4556 12.9185 48.3959 12.9906 48.3198 13.0416C48.2437 13.0926 48.1545 13.1204 48.0629 13.1216C47.5431 13.1159 47.0332 13.2641 46.5971 13.5477C46.161 13.8313 45.8181 14.2376 45.6114 14.7157C45.554 14.8269 45.5417 14.956 45.5769 15.0761C45.6122 15.1962 45.6923 15.2981 45.8007 15.3604C47.1729 16.0911 51.9625 19.1363 53.7604 26.631C53.7783 26.7131 53.7741 26.7985 53.7482 26.8785C53.7223 26.9585 53.6757 27.0301 53.6131 27.0861C53.5505 27.142 53.4742 27.1803 53.392 27.197C53.3098 27.2137 53.2246 27.2081 53.1453 27.181C52.6953 27.0311 52.2371 26.9077 51.7729 26.8112C51.4228 26.7446 51.0443 26.6784 50.637 26.631C50.5392 26.6206 50.4405 26.6405 50.3542 26.688C50.2679 26.7355 50.1982 26.8083 50.1544 26.8966C50.1078 26.9853 50.0909 27.0867 50.1062 27.1857C50.1216 27.2848 50.1683 27.3762 50.2395 27.4466C51.8937 29.0813 53.1725 31.0579 53.9866 33.2386C54.8007 35.4193 55.1306 37.7517 54.9534 40.0733V40.0732Z" fill="#6D28D9"/>
<path id="Vector_3" d="M52.9752 39.8265L51.707 39.1911C51.6404 39.1562 51.5663 39.1382 51.4911 39.1386C51.416 39.139 51.3421 39.1577 51.2758 39.1933C51.2096 39.2288 51.1529 39.28 51.1109 39.3424C51.0689 39.4048 51.0427 39.4766 51.0347 39.5514C51.0253 39.6463 51.0065 39.7317 50.9972 39.8265L49.719 39.1911C49.6523 39.1574 49.5784 39.1403 49.5037 39.1411C49.429 39.142 49.3555 39.1609 49.2896 39.1962C49.2237 39.2315 49.1673 39.2823 49.1251 39.3441C49.0829 39.406 49.0562 39.4771 49.0472 39.5514C48.2513 44.5368 45.8556 49.1262 42.2233 52.6241C41.6999 51.8407 41.0354 51.162 40.2639 50.6225C40.2082 50.5797 40.1437 50.5497 40.0751 50.5346C40.0065 50.5194 39.9355 50.5196 39.8669 50.535C39.7983 50.5503 39.7339 50.5804 39.6782 50.6234C39.6226 50.6663 39.577 50.721 39.5448 50.7836C39.4498 50.996 39.3358 51.1992 39.2039 51.3908C38.912 51.1145 38.6021 50.8579 38.2764 50.6226C38.2213 50.5803 38.1576 50.5506 38.0897 50.5357C38.0219 50.5208 37.9516 50.5211 37.8839 50.5364C37.8162 50.5518 37.7527 50.5819 37.6979 50.6246C37.643 50.6673 37.5983 50.7216 37.5667 50.7836C35.9669 54.2177 30.6383 54.9483 27.3067 55.0525H27.2874C27.2023 55.0547 27.1171 55.0517 27.0322 55.0431C26.9689 55.0406 26.9067 55.025 26.8496 54.9975C26.7924 54.97 26.7415 54.931 26.7 54.8831C26.6583 54.8352 26.6268 54.7792 26.6075 54.7187C26.5882 54.6582 26.5814 54.5943 26.5875 54.5311C26.9092 51.6376 22.981 51.2673 21.9969 51.2298C21.9265 51.2252 21.8559 51.2363 21.7903 51.2625C21.7248 51.2888 21.6659 51.3294 21.6181 51.3814C21.6087 51.4002 21.5899 51.41 21.5801 51.4288C21.0631 51.3178 20.5376 51.2512 20.0093 51.2298C19.9389 51.2251 19.8683 51.2363 19.8028 51.2625C19.7372 51.2887 19.6784 51.3293 19.6306 51.3814C19.2573 51.7626 19.0205 52.257 18.9571 52.7874C18.8938 53.3177 19.0075 53.8542 19.2804 54.313C19.3312 54.4037 19.3486 54.5093 19.3296 54.6116C19.3105 54.7138 19.2563 54.8061 19.1764 54.8723C9.16269 53.7817 7.09935 46.3536 6.71118 44.2094C6.69726 44.137 6.6667 44.0689 6.62193 44.0104C6.57716 43.9519 6.51941 43.9046 6.45325 43.8724C6.38709 43.8402 6.31435 43.8238 6.2408 43.8247C6.16724 43.8255 6.0949 43.8435 6.0295 43.8773C5.58382 44.0993 5.18277 44.4017 4.84645 44.7693C4.79687 44.5847 4.75593 44.3979 4.72375 44.2095C4.70975 44.1372 4.67916 44.0691 4.63438 44.0106C4.5896 43.9521 4.53186 43.9049 4.46573 43.8727C4.39961 43.8404 4.3269 43.8241 4.25337 43.8248C4.17984 43.8256 4.10751 43.8435 4.04208 43.8772C3.67099 44.0618 3.33214 44.3054 3.03865 44.5985C1.98812 38.4797 3.8908 31.2505 4.53408 29.0975C4.55544 29.0212 4.55768 28.9408 4.54057 28.8635C4.52347 28.7861 4.48757 28.7142 4.43606 28.6541C4.38454 28.594 4.31901 28.5476 4.2453 28.519C4.17158 28.4905 4.09195 28.4806 4.0135 28.4902C3.51421 28.5539 3.02268 28.6683 2.54654 28.8319C2.51379 28.7226 2.44361 28.6284 2.34838 28.5659C2.25315 28.5034 2.13898 28.4766 2.02596 28.4902C1.38112 28.5703 0.750434 28.7395 0.151855 28.9929C0.536061 26.0834 1.52677 23.2874 3.0596 20.7867C4.59244 18.2861 6.63308 16.1367 9.04893 14.4782C9.10763 14.4409 9.15713 14.3907 9.19372 14.3315C9.23031 14.2722 9.25304 14.2055 9.26019 14.1362C9.26757 14.0669 9.25922 13.9968 9.23576 13.9312C9.2123 13.8656 9.17434 13.8062 9.12473 13.7574C8.30127 12.9511 6.72994 12.9793 5.70786 13.1028H5.65115C5.60451 13.0916 5.55685 13.0853 5.50892 13.084C5.4384 13.0631 5.37368 13.026 5.31986 12.9758C5.26603 12.9256 5.22457 12.8635 5.19874 12.7945C5.17308 12.7254 5.1638 12.6513 5.17164 12.578C5.17947 12.5047 5.20421 12.4342 5.24389 12.3722C5.76416 11.5153 6.47132 10.7876 7.31228 10.2438C8.15325 9.69997 9.10619 9.35413 10.0996 9.23223C10.2887 9.26087 10.4592 9.28907 10.601 9.31761C10.6796 9.33233 10.7607 9.32703 10.8367 9.3022C10.9128 9.27737 10.9814 9.2338 11.0364 9.17549C11.5575 9.17374 12.0769 9.22151 12.5889 9.31761C12.6664 9.33253 12.7464 9.32751 12.8215 9.30302C12.8965 9.27853 12.9641 9.23537 13.018 9.17757C13.0719 9.11977 13.1103 9.04922 13.1295 8.97252C13.1488 8.89582 13.1484 8.81547 13.1283 8.73898C12.6871 7.58787 12.0355 6.5294 11.2068 5.61793C11.1586 5.56309 11.1248 5.49712 11.1083 5.42594C11.0918 5.35476 11.0931 5.28058 11.1123 5.21006C11.8865 5.47066 12.637 5.79753 13.3554 6.18705C13.4254 6.22678 13.5045 6.24753 13.585 6.24724C13.6655 6.24695 13.7445 6.22564 13.8142 6.18541C13.8841 6.14533 13.9423 6.08761 13.9831 6.018C14.0238 5.94838 14.0457 5.86929 14.0465 5.78858C14.0451 5.71566 14.0481 5.64308 14.0558 5.57049C14.4893 5.75969 14.9156 5.96536 15.3335 6.18705C15.4043 6.2259 15.4838 6.24598 15.5645 6.24537C15.6452 6.24476 15.7243 6.2235 15.7945 6.18358C15.8647 6.14367 15.9235 6.08644 15.9654 6.01732C16.0073 5.94821 16.0309 5.86951 16.0339 5.78869C16.0402 4.84135 16.2835 3.91073 16.7416 3.08205C17.1996 2.25336 17.8577 1.55309 18.6557 1.04535C18.5419 2.08891 18.5326 3.62582 19.3468 4.42264C19.394 4.46804 19.4499 4.50339 19.5111 4.52657C19.5723 4.54976 19.6375 4.56029 19.7029 4.55754C19.7683 4.55493 19.8325 4.5391 19.8917 4.511C19.9509 4.4829 20.0037 4.4431 20.0472 4.394C20.2875 4.11628 20.5537 3.8622 20.8422 3.63522C20.9499 3.92906 21.1175 4.19722 21.3342 4.42264C21.3804 4.46823 21.4354 4.50383 21.4959 4.52726C21.5563 4.55069 21.6209 4.56144 21.6857 4.55885C21.7505 4.55609 21.8141 4.54003 21.8725 4.51168C21.9309 4.48333 21.9829 4.44327 22.0252 4.394C22.6971 3.60658 24.789 1.69995 29.455 1.47224H29.5117C30.1555 1.50044 30.8465 1.56713 31.5751 1.66191C31.6707 1.67366 31.7604 1.71436 31.8323 1.77858C31.9042 1.84279 31.9549 1.92747 31.9775 2.0213C32.0002 2.11513 31.9937 2.21365 31.959 2.30371C31.9243 2.39376 31.8631 2.47107 31.7834 2.52531C30.9183 3.07282 30.1976 3.82116 29.6822 4.70698C29.6396 4.78729 29.6212 4.8783 29.6293 4.96891C29.6374 5.05952 29.6716 5.14581 29.7278 5.21725C29.784 5.2887 29.8597 5.34221 29.9457 5.37125C30.0317 5.40029 30.1243 5.40362 30.2122 5.38082C30.6916 5.26435 31.1786 5.1819 31.6696 5.13409C31.7159 5.23034 31.794 5.30755 31.8906 5.35254C31.9873 5.39753 32.0965 5.40753 32.1997 5.38082C32.7436 5.24866 33.2977 5.16297 33.8561 5.12469C37.0459 5.37109 41.5795 6.91729 46.4159 12.3247C46.4782 12.392 46.5198 12.4759 46.5354 12.5664C46.5511 12.6569 46.5402 12.7499 46.5041 12.8343C46.468 12.9187 46.4083 12.9908 46.3321 13.0417C46.256 13.0927 46.1667 13.1205 46.0751 13.1216C45.5559 13.1184 45.0471 13.2677 44.6116 13.551C44.176 13.8342 43.8327 14.2391 43.6241 14.7157C43.5705 14.8285 43.5612 14.9574 43.598 15.0768C43.6347 15.1962 43.7149 15.2974 43.8226 15.3604C45.1949 16.0911 49.9747 19.1363 51.773 26.631C51.7922 26.6894 51.7922 26.7523 51.773 26.8112C51.4229 26.7445 51.0444 26.6784 50.6371 26.631C50.5393 26.6206 50.4406 26.6405 50.3543 26.688C50.268 26.7355 50.1983 26.8083 50.1545 26.8966C49.6587 26.778 49.1562 26.6893 48.6497 26.631C48.5511 26.6197 48.4515 26.6394 48.3645 26.6873C48.2775 26.7351 48.2075 26.8088 48.164 26.8982C48.1203 26.9876 48.1054 27.0882 48.1212 27.1864C48.1369 27.2846 48.1827 27.3755 48.2522 27.4466C49.877 29.0515 51.1394 30.9871 51.9542 33.1228C52.769 35.2584 53.1172 37.5444 52.9753 39.8265H52.9752Z" fill="#8B5CF6"/>
<path id="Vector_4" d="M4.08933 7.00267C2.85297 7.41217 1.67316 7.97652 0.577902 8.68235C0.425327 8.78908 0.243256 8.84527 0.0572132 8.84305C0.0378241 8.84465 0.018341 8.84142 0.000498133 8.83365C-7.29033e-06 8.51976 0.0189342 8.20614 0.0572132 7.8946C0.0947325 7.48684 0.154829 7.08127 0.237066 6.68018V6.67078C1.26547 6.0692 2.35344 5.57633 3.48346 5.20011C3.722 5.11962 3.98268 5.13739 4.20815 5.24951C4.43363 5.36162 4.60544 5.55891 4.68582 5.79798C4.8528 6.29581 4.58613 6.83519 4.08933 7.00267ZM54.8965 8.83376C54.8786 8.84141 54.8594 8.84491 54.8398 8.84316C54.6537 8.84529 54.4717 8.78902 54.3192 8.68224C53.224 7.97637 52.0441 7.41205 50.8078 7.00267C50.65 6.94946 50.5089 6.85555 50.3988 6.73037C50.2887 6.60519 50.2135 6.45317 50.1806 6.28958C50.1478 6.12593 50.1585 5.9565 50.2117 5.7983C50.2648 5.64011 50.3586 5.49872 50.4835 5.38834C50.6085 5.27795 50.7602 5.20246 50.9234 5.16944C51.0867 5.13642 51.2558 5.14704 51.4136 5.20022C52.5436 5.57644 53.6316 6.06931 54.66 6.67089C54.7423 7.07521 54.8023 7.48377 54.8399 7.89471C54.8781 8.20605 54.8973 8.52001 54.8966 8.83376H54.8965Z" fill="#F9A8D4"/>
<path id="Vector_5" d="M27.4484 23.7089C27.4484 28.424 23.6349 32.2468 18.9302 32.2468C18.6139 32.2471 18.2979 32.2281 17.9839 32.1899C21.7083 31.7691 24.721 28.9566 25.4043 25.2627C26.0881 21.5685 24.282 17.8611 20.9554 16.1292C21.1819 15.9704 21.397 15.796 21.5993 15.6073C25.0928 16.7542 27.4535 20.0241 27.4484 23.7089Z" fill="#E6E7E8"/>
<path id="Vector_6" d="M25.5554 23.7089C25.5562 28.0568 22.2948 31.71 17.9837 32.19C16.4211 32.0175 14.9369 31.4141 13.6958 30.447C12.4546 29.4799 11.5053 28.1869 10.9531 26.7116C10.4011 25.2363 10.2679 23.6365 10.5683 22.0899C10.8687 20.5433 11.5909 19.1104 12.6547 17.9504C12.7157 17.873 12.7822 17.8 12.8537 17.7322C13.2299 17.8232 13.6129 17.8834 13.999 17.9124H14.0176C14.9909 18.003 15.9719 17.9583 16.933 17.7795C18.3803 17.5387 19.755 16.9747 20.9554 16.1292C23.7843 17.5925 25.5601 20.5181 25.5554 23.7089Z" fill="white"/>
<path id="Vector_7" d="M44.4851 23.7089C44.4851 28.424 40.6715 32.2468 35.9668 32.2468C35.6505 32.247 35.3345 32.2281 35.0205 32.1899C36.5818 32.0172 38.0649 31.4145 39.3052 30.4486C40.5456 29.4827 41.4949 28.1913 42.0477 26.7176C43.1749 23.7123 42.5223 20.3272 40.3584 17.9598C40.9321 17.9512 41.5032 17.8813 42.0621 17.7514C43.6174 19.3423 44.4875 21.4815 44.4851 23.7089Z" fill="#E6E7E8"/>
<path id="Vector_8" d="M42.5922 23.7089C42.5931 28.0568 39.3316 31.71 35.0205 32.19C31.0315 31.7391 27.8984 28.5581 27.4991 24.5548C27.0998 20.5514 29.5433 16.8119 33.364 15.5786C34.6879 16.7453 36.3166 17.5089 38.0586 17.7795C38.3994 17.8462 38.7398 17.8841 39.0713 17.9222H39.0901C39.5119 17.958 39.9353 17.9704 40.3585 17.9598C41.7992 19.5256 42.597 21.5789 42.5922 23.7089Z" fill="white"/>
<path id="Vector_9" d="M23.6623 23.7089C23.6623 26.3286 21.5435 28.4522 18.9298 28.4522C16.3161 28.4522 14.1973 26.3286 14.1973 23.7089C14.1973 21.0892 16.316 18.9654 18.9297 18.9654C21.5434 18.9654 23.6623 21.089 23.6623 23.7088V23.7089ZM40.6989 23.7089C40.6989 26.3286 38.5802 28.4522 35.9665 28.4522C33.3531 28.4522 31.2339 26.3286 31.2339 23.7089C31.2339 21.0892 33.3531 18.9654 35.9664 18.9654C38.5802 18.9654 40.6989 21.089 40.6989 23.7088V23.7089Z" fill="#9333EA"/>
<path id="Vector_10" d="M21.7696 23.7089C21.7696 25.2808 20.4982 26.555 18.9299 26.555C17.3616 26.555 16.0903 25.2808 16.0903 23.7089C16.0903 22.137 17.3617 20.8626 18.93 20.8626C20.4983 20.8626 21.7696 22.137 21.7696 23.7089ZM38.8062 23.7089C38.8062 25.2808 37.535 26.555 35.9667 26.555C34.3984 26.555 33.1274 25.2808 33.1274 23.7089C33.1274 22.137 34.3984 20.8626 35.9667 20.8626C37.535 20.8626 38.8063 22.137 38.8063 23.7089H38.8062Z" fill="#2C2F38"/>
<path id="Vector_11" d="M17.9835 20.8626C17.9835 21.9106 17.1357 22.7604 16.0901 22.7604C15.045 22.7604 14.1973 21.9106 14.1973 20.8626C14.1973 19.8152 15.045 18.9654 16.0901 18.9654C17.1357 18.9654 17.9835 19.8152 17.9835 20.8626ZM35.0202 20.8626C35.0202 21.9106 34.1723 22.7604 33.1272 22.7604C32.0817 22.7604 31.2339 21.9106 31.2339 20.8626C31.2339 19.8152 32.0817 18.9654 33.1273 18.9654C34.1723 18.9654 35.0202 19.8152 35.0202 20.8626Z" fill="white"/>
</g>
<g id="Group_2">
<g id="Group_3">
<path id="Vector_12" fill-rule="evenodd" clip-rule="evenodd" d="M38.7866 40.4362L44.9461 60.8492C45.0993 61.3568 45.0447 61.9048 44.7945 62.3727C44.5442 62.8406 44.1188 63.19 43.6118 63.3442L10.4737 73.4188C9.96669 73.5729 9.41957 73.5191 8.95274 73.2693C8.48592 73.0194 8.13761 72.5938 7.98446 72.0863L0.670016 47.8458C0.516866 47.3383 0.57141 46.7903 0.82165 46.3224C1.07189 45.8545 1.49733 45.505 2.00437 45.3509L17.2988 40.701L38.7866 40.4362Z" fill="#FBCFE8"/>
<path id="Vector_13" fill-rule="evenodd" clip-rule="evenodd" d="M39.186 45.605L17.0091 44.9304L14.5718 41.5198L18.2254 40.3874L38.7749 40.4345L40.133 45.0363C40.1172 45.1418 40.0763 45.2421 40.0137 45.3286C39.9512 45.4152 39.8688 45.4854 39.7736 45.5335C39.6783 45.5815 39.573 45.606 39.4664 45.6048C39.3598 45.6036 39.28 45.6552 39.186 45.605Z" fill="#F9A8D4"/>
<path id="Vector_14" d="M41.1814 59.9173L39.4489 54.1753C39.3425 53.8229 38.971 53.624 38.619 53.7311L32.8828 55.475C32.5308 55.582 32.3317 55.9544 32.438 56.3068L34.1706 62.0488C34.2769 62.4011 34.6485 62.6 35.0005 62.493L40.7366 60.7491C41.0886 60.642 41.2878 60.2697 41.1814 59.9173Z" fill="#F9A8D4"/>
<g id="Group_4">
<path id="Vector_15" fill-rule="evenodd" clip-rule="evenodd" d="M30.5454 63.833L26.1187 49.1594C26.0676 48.9902 26.0858 48.8075 26.1693 48.6515C26.2527 48.4955 26.3946 48.379 26.5637 48.3276C26.7327 48.2762 26.9151 48.2941 27.0708 48.3774C27.2264 48.4607 27.3425 48.6025 27.3936 48.7717L31.8203 63.4453C31.8713 63.6145 31.8531 63.7972 31.7697 63.9532C31.6862 64.1092 31.5444 64.2258 31.3753 64.2772C31.2063 64.3286 31.0238 64.3107 30.8682 64.2274C30.7126 64.1441 30.5964 64.0022 30.5454 63.833ZM27.3582 64.8022L21.9691 46.9387C21.9181 46.7695 21.9363 46.5868 22.0197 46.4308C22.1032 46.2748 22.245 46.1583 22.4141 46.1068C22.5831 46.0554 22.7656 46.0734 22.9212 46.1566C23.0768 46.2399 23.193 46.3818 23.244 46.551L28.633 64.4145C28.6841 64.5837 28.6659 64.7664 28.5824 64.9224C28.499 65.0784 28.3571 65.195 28.1881 65.2464C28.019 65.2978 27.8366 65.2799 27.6809 65.1966C27.5253 65.1133 27.4092 64.9714 27.3582 64.8022ZM24.1709 65.7714L17.6271 44.08C17.576 43.9108 17.5942 43.7281 17.6777 43.5721C17.7611 43.4161 17.903 43.2996 18.072 43.2481C18.2411 43.1967 18.4235 43.2146 18.5792 43.2979C18.7348 43.3812 18.8509 43.5231 18.902 43.6923L25.4458 65.3837C25.4968 65.5529 25.4786 65.7356 25.3952 65.8916C25.3117 66.0476 25.1699 66.1642 25.0008 66.2156C24.8318 66.267 24.6493 66.2491 24.4937 66.1658C24.3381 66.0825 24.2219 65.9406 24.1709 65.7714ZM20.9837 66.7406L14.4398 45.0492C14.3888 44.88 14.407 44.6973 14.4904 44.5413C14.5739 44.3853 14.7157 44.2688 14.8848 44.2173C15.0539 44.1659 15.2363 44.1838 15.3919 44.2671C15.5475 44.3504 15.6637 44.4923 15.7147 44.6615L22.2586 66.3529C22.3096 66.5221 22.2914 66.7048 22.2079 66.8608C22.1245 67.0168 21.9826 67.1334 21.8136 67.1848C21.6445 67.2362 21.4621 67.2183 21.3065 67.135C21.1508 67.0517 21.0347 66.9098 20.9837 66.7406ZM17.7964 67.7098L11.2526 46.0184C11.2015 45.8492 11.2197 45.6665 11.3032 45.5105C11.3866 45.3545 11.5285 45.238 11.6975 45.1865C11.8666 45.1351 12.049 45.153 12.2047 45.2363C12.3603 45.3196 12.4764 45.4615 12.5275 45.6307L19.0713 67.3221C19.1224 67.4913 19.1041 67.674 19.0207 67.83C18.9372 67.986 18.7954 68.1026 18.6263 68.154C18.4573 68.2054 18.2748 68.1875 18.1192 68.1042C17.9636 68.0209 17.8475 67.879 17.7964 67.7098ZM14.6092 68.679L8.06531 46.9876C8.01427 46.8184 8.03247 46.6357 8.11592 46.4797C8.19937 46.3237 8.34123 46.2072 8.51029 46.1557C8.67936 46.1043 8.86177 46.1222 9.01741 46.2055C9.17305 46.2888 9.28916 46.4307 9.34021 46.5999L15.8841 68.2913C15.9351 68.4605 15.9169 68.6432 15.8334 68.7992C15.75 68.9552 15.6081 69.0718 15.4391 69.1232C15.27 69.1746 15.0876 69.1567 14.932 69.0734C14.7763 68.9901 14.6602 68.8482 14.6092 68.679ZM8.14999 58.8025L4.87806 47.9568C4.82702 47.7876 4.84522 47.6049 4.92867 47.4489C5.01212 47.2929 5.15398 47.1763 5.32305 47.1249C5.49211 47.0735 5.67452 47.0914 5.83016 47.1747C5.9858 47.258 6.10192 47.3999 6.15296 47.5691L9.42489 58.4148C9.47593 58.584 9.45773 58.7667 9.37428 58.9227C9.29082 59.0787 9.14896 59.1952 8.9799 59.2466C8.81084 59.298 8.62842 59.2801 8.47278 59.1968C8.31715 59.1135 8.20103 58.9717 8.14999 58.8025Z" fill="#F472B6"/>
</g>
</g>
</g>
<path id="Vector_16" d="M16.0903 39.8363H21.7695V41.7336C21.7695 42.7815 20.9221 43.6309 19.8766 43.6309H17.9837C16.9382 43.6309 16.0903 42.7815 16.0903 41.7336V39.8363Z" fill="#F1F5F9"/>
<path id="Vector_17" d="M17.0371 39.8363H20.823V41.7336C20.823 42.7815 19.9755 43.6309 18.93 43.6309C17.8845 43.6309 17.0371 42.7815 17.0371 41.7336V39.8363Z" fill="white"/>
<path id="Vector_18" d="M33.1274 39.8363H38.8063V41.7336C38.8063 42.7815 37.9588 43.6309 36.9133 43.6309H35.0204C33.9749 43.6309 33.1274 42.7815 33.1274 41.7336V39.8363Z" fill="#F1F5F9"/>
<path id="Vector_19" d="M34.0737 39.8363H37.8596V41.7336C37.8596 42.7815 37.0121 43.6309 35.9667 43.6309C34.9213 43.6309 34.0737 42.7815 34.0737 41.7336V39.8363Z" fill="white"/>
<path id="Vector_20" d="M38.806 40.7848H16.0903C12.9555 40.7817 10.4146 38.235 10.4116 35.0929C10.4116 34.5689 10.8356 34.144 11.3583 34.144C11.8811 34.144 12.3045 34.5689 12.3045 35.0929C12.3045 37.1888 13.9997 38.8875 16.0903 38.8875H38.8063C40.8973 38.8875 42.592 37.1888 42.592 35.093C42.592 34.8414 42.6917 34.6 42.8693 34.422C43.0468 34.2441 43.2876 34.1441 43.5387 34.1441C44.0615 34.1441 44.485 34.5689 44.485 35.093C44.482 38.2351 41.9411 40.7817 38.8063 40.7848H38.806Z" fill="#4C1D95"/>
</g>
<g id="Frame 3">
<path id="Surveyvore" d="M88.44 36.0481C82.12 36.0481 77.36 32.3681 77.36 27.4481H81.32C81.32 29.6881 84.44 31.4081 88.64 31.4081C92.36 31.4081 95.4 30.0081 95.4 27.9281C95.4 25.2481 90.64 24.3681 87.24 23.8081C81.88 22.8881 77.92 20.2481 77.92 15.6481C77.92 10.7281 82.48 7.48811 88.24 7.48811C94.32 7.48811 98.8 11.0881 98.8 15.7281H94.84C94.84 13.6881 92 12.1281 88.12 12.1281C84.6 12.1281 81.84 13.4081 81.84 15.4081C81.84 17.9681 87.12 18.9681 89.44 19.3281C95.16 20.2881 99.32 22.7281 99.32 27.5281C99.32 32.6881 94.48 36.0481 88.44 36.0481ZM118.168 15.1681H121.688V35.5681H118.168V31.2081C116.728 34.3281 114.088 36.0481 110.728 36.0481C106.128 36.0481 103.008 32.9281 103.008 28.1681V15.1681H106.567V26.8481C106.567 29.5681 108.808 31.3281 112.208 31.3281C115.768 31.3281 118.168 29.5281 118.168 26.7681V15.1681ZM130.559 20.3281C132.079 16.9681 134.839 14.8481 138.319 14.8481V20.6081C133.359 20.6081 130.559 22.7281 130.559 26.3681V35.5681H126.999V15.1681H130.559V20.3281ZM148.265 35.5681L140.305 15.1681H144.025L150.185 30.0881H151.025L157.185 15.1681H161.265L153.345 35.5681H148.265ZM183.771 25.4481C183.771 25.9281 183.731 26.5281 183.691 26.9681H165.691C166.451 29.6081 169.251 31.4081 173.011 31.4081C175.611 31.4081 177.971 30.6081 179.211 29.5281H183.371C181.691 33.4081 177.771 36.0481 172.891 36.0481C166.611 36.0481 161.931 31.4481 161.931 25.3681C161.931 19.2881 166.611 14.6881 172.851 14.6881C179.091 14.6881 183.771 19.2481 183.771 25.4481ZM172.851 19.3281C169.291 19.3281 166.531 21.0881 165.691 23.7281H180.091C179.291 21.0881 176.411 19.3281 172.851 19.3281ZM201.248 15.1681H205.328L194.408 43.1681H189.968L193.528 35.5681H192.328L184.368 15.1681H188.088L194.248 30.0881H195.088L201.248 15.1681ZM214.281 35.5681L206.321 15.1681H210.041L216.201 30.0881H217.041L223.201 15.1681H227.281L219.361 35.5681H214.281ZM238.867 36.0481C232.627 36.0481 227.947 31.4481 227.947 25.3681C227.947 19.2881 232.627 14.6881 238.867 14.6881C245.067 14.6881 249.787 19.2881 249.787 25.3681C249.787 31.4481 245.067 36.0481 238.867 36.0481ZM238.867 31.3281C243.027 31.3281 246.107 28.7681 246.107 25.3681C246.107 21.9681 243.027 19.4081 238.867 19.4081C234.707 19.4081 231.627 21.9681 231.627 25.3681C231.627 28.7681 234.707 31.3281 238.867 31.3281ZM257.395 20.3281C258.915 16.9681 261.675 14.8481 265.155 14.8481V20.6081C260.195 20.6081 257.395 22.7281 257.395 26.3681V35.5681H253.835V15.1681H257.395V20.3281ZM288.732 25.4481C288.732 25.9281 288.692 26.5281 288.652 26.9681H270.652C271.412 29.6081 274.212 31.4081 277.972 31.4081C280.572 31.4081 282.932 30.6081 284.172 29.5281H288.332C286.652 33.4081 282.732 36.0481 277.852 36.0481C271.572 36.0481 266.892 31.4481 266.892 25.3681C266.892 19.2881 271.572 14.6881 277.812 14.6881C284.052 14.6881 288.732 19.2481 288.732 25.4481ZM277.812 19.3281C274.252 19.3281 271.492 21.0881 270.652 23.7281H285.052C284.252 21.0881 281.372 19.3281 277.812 19.3281Z" fill="#6D28D9"/>
<path id="Des formulaires &#195;&#160; croquer" d="M78.9264 61.7901H81.9288C82.7016 61.7901 83.4173 61.657 84.0761 61.391C84.7348 61.125 85.3112 60.7513 85.8053 60.2699C86.2994 59.7885 86.6794 59.2247 86.9455 58.5786C87.2242 57.9325 87.3635 57.2295 87.3635 56.4694C87.3635 55.7093 87.2242 55.0062 86.9455 54.3601C86.6794 53.714 86.2994 53.1502 85.8053 52.6689C85.3112 52.1875 84.7348 51.8137 84.0761 51.5477C83.4173 51.2817 82.7016 51.1486 81.9288 51.1486H78.9264V61.7901ZM77.4632 63.1202V49.8185H81.8528C82.8662 49.8185 83.7974 49.9832 84.6461 50.3125C85.4949 50.6419 86.2297 51.1043 86.8504 51.6997C87.4839 52.2951 87.9716 52.9982 88.3136 53.809C88.6684 54.6198 88.8457 55.5066 88.8457 56.4694C88.8457 57.4321 88.6747 58.3189 88.3326 59.1297C87.9906 59.9405 87.5029 60.6436 86.8694 61.239C86.2487 61.8344 85.5076 62.2968 84.6461 62.6262C83.7974 62.9556 82.8662 63.1202 81.8528 63.1202H77.4632ZM95.3394 63.2913C94.4273 63.2913 93.5975 63.0759 92.85 62.6452C92.1153 62.2018 91.5262 61.6064 91.0828 60.8589C90.6521 60.1115 90.4367 59.2754 90.4367 58.3506C90.4367 57.4385 90.6458 56.615 91.0638 55.8803C91.4819 55.1328 92.0456 54.5438 92.755 54.113C93.4645 53.6696 94.2562 53.448 95.1303 53.448C95.9791 53.448 96.7392 53.6696 97.4107 54.113C98.0947 54.5438 98.6331 55.1328 99.0259 55.8803C99.4313 56.615 99.6339 57.4385 99.6339 58.3506V58.7877H91.8239C91.8999 59.4084 92.0963 59.9658 92.413 60.4599C92.7424 60.954 93.1668 61.3467 93.6862 61.638C94.2056 61.9167 94.7756 62.0561 95.3964 62.0561C95.8904 62.0561 96.3718 61.9801 96.8406 61.8281C97.3093 61.676 97.702 61.4607 98.0187 61.182L98.8928 62.1131C98.3608 62.5058 97.8034 62.8035 97.2206 63.0062C96.6505 63.1962 96.0235 63.2913 95.3394 63.2913ZM91.8619 57.6665H98.2278C98.1517 57.0964 97.9617 56.5897 97.6577 56.1463C97.3663 55.6903 96.9989 55.3355 96.5555 55.0822C96.1121 54.8161 95.6244 54.6831 95.0923 54.6831C94.5476 54.6831 94.0472 54.8098 93.5911 55.0632C93.1351 55.3165 92.755 55.6712 92.451 56.1273C92.147 56.5707 91.9506 57.0838 91.8619 57.6665ZM104.733 63.3103C103.948 63.3103 103.206 63.1836 102.51 62.9302C101.826 62.6642 101.23 62.2968 100.723 61.8281L101.579 60.9159C102.022 61.3213 102.51 61.638 103.042 61.8661C103.574 62.0814 104.119 62.1891 104.676 62.1891C105.436 62.1891 106.057 62.0308 106.538 61.7141C107.02 61.3973 107.26 60.9856 107.26 60.4789C107.26 60.0608 107.115 59.7378 106.823 59.5098C106.545 59.2691 106.101 59.1044 105.493 59.0157L103.84 58.7877C102.89 58.6483 102.18 58.3633 101.712 57.9325C101.256 57.5018 101.028 56.9191 101.028 56.1843C101.028 55.6522 101.18 55.1772 101.484 54.7591C101.788 54.3411 102.206 54.0117 102.738 53.771C103.282 53.5303 103.903 53.4099 104.6 53.4099C105.297 53.4099 105.949 53.5113 106.557 53.714C107.165 53.9167 107.761 54.2334 108.343 54.6641L107.602 55.6142C107.07 55.2469 106.551 54.9808 106.044 54.8161C105.55 54.6388 105.043 54.5501 104.524 54.5501C103.865 54.5501 103.333 54.6958 102.928 54.9872C102.522 55.2785 102.32 55.6586 102.32 56.1273C102.32 56.558 102.459 56.8874 102.738 57.1154C103.016 57.3308 103.466 57.4828 104.087 57.5715L105.74 57.7995C106.69 57.9262 107.4 58.2049 107.868 58.6356C108.35 59.0664 108.591 59.6554 108.591 60.4029C108.591 60.9476 108.419 61.4417 108.077 61.8851C107.735 62.3285 107.273 62.6768 106.69 62.9302C106.12 63.1836 105.468 63.3103 104.733 63.3103ZM115.624 63.1202V54.7971H113.382V53.6H115.624V51.7947C115.624 50.8573 115.877 50.1415 116.384 49.6474C116.891 49.1534 117.619 48.9063 118.569 48.9063C118.823 48.9063 119.051 48.919 119.253 48.9444C119.456 48.9697 119.653 49.014 119.843 49.0774V50.3315C119.627 50.2682 119.431 50.2239 119.253 50.1985C119.076 50.1605 118.88 50.1415 118.664 50.1415C118.107 50.1415 117.689 50.2809 117.41 50.5596C117.144 50.8256 117.011 51.25 117.011 51.8327V53.6H119.843V54.7971H117.011V63.1202H115.624ZM125.308 63.3103C124.409 63.3103 123.585 63.0949 122.838 62.6642C122.103 62.2208 121.52 61.6254 121.09 60.8779C120.659 60.1305 120.444 59.2944 120.444 58.3696C120.444 57.4448 120.659 56.6087 121.09 55.8613C121.52 55.1138 122.103 54.5248 122.838 54.094C123.585 53.6506 124.409 53.429 125.308 53.429C126.22 53.429 127.044 53.6506 127.779 54.094C128.513 54.5248 129.096 55.1138 129.527 55.8613C129.958 56.6087 130.173 57.4448 130.173 58.3696C130.173 59.2944 129.958 60.1305 129.527 60.8779C129.096 61.6254 128.513 62.2208 127.779 62.6642C127.044 63.0949 126.22 63.3103 125.308 63.3103ZM125.308 62.0561C125.954 62.0561 126.537 61.8914 127.057 61.562C127.589 61.2327 128.007 60.7893 128.311 60.2319C128.627 59.6744 128.786 59.0537 128.786 58.3696C128.786 57.6728 128.627 57.0521 128.311 56.5074C128.007 55.95 127.589 55.5066 127.057 55.1772C126.537 54.8478 125.954 54.6831 125.308 54.6831C124.662 54.6831 124.073 54.8478 123.541 55.1772C123.022 55.5066 122.604 55.95 122.287 56.5074C121.983 57.0521 121.831 57.6728 121.831 58.3696C121.831 59.0537 121.983 59.6744 122.287 60.2319C122.604 60.7893 123.022 61.2327 123.541 61.562C124.073 61.8914 124.662 62.0561 125.308 62.0561ZM132.126 63.1202V53.6H133.533V54.9492C133.824 54.4551 134.191 54.075 134.635 53.809C135.091 53.5303 135.61 53.3909 136.193 53.3909C136.522 53.3909 136.82 53.4353 137.086 53.524V54.8161C136.921 54.7528 136.757 54.7085 136.592 54.6831C136.427 54.6578 136.263 54.6451 136.098 54.6451C135.515 54.6451 135.002 54.8161 134.559 55.1582C134.128 55.4876 133.786 55.969 133.533 56.6024V63.1202H132.126ZM138.696 63.1202V53.6H140.102V54.6451C140.824 53.8217 141.755 53.4099 142.895 53.4099C143.567 53.4099 144.162 53.5683 144.681 53.885C145.201 54.1891 145.606 54.6071 145.898 55.1392C146.29 54.5564 146.759 54.1257 147.304 53.847C147.848 53.5556 148.469 53.4099 149.166 53.4099C149.863 53.4099 150.471 53.5683 150.99 53.885C151.51 54.1891 151.915 54.6198 152.206 55.1772C152.51 55.7219 152.662 56.3617 152.662 57.0964V63.1202H151.275V57.3815C151.275 56.5327 151.054 55.8676 150.61 55.3862C150.167 54.8921 149.565 54.6451 148.805 54.6451C148.286 54.6451 147.81 54.7781 147.38 55.0442C146.949 55.2975 146.582 55.6839 146.278 56.2033C146.303 56.3427 146.322 56.4884 146.335 56.6404C146.36 56.7797 146.373 56.9317 146.373 57.0964V63.1202H144.985V57.3815C144.985 56.5327 144.764 55.8676 144.32 55.3862C143.877 54.8921 143.282 54.6451 142.534 54.6451C142.027 54.6451 141.565 54.7655 141.147 55.0062C140.742 55.2342 140.393 55.5762 140.102 56.0323V63.1202H138.696ZM158.582 63.3103C157.859 63.3103 157.22 63.1582 156.662 62.8542C156.105 62.5375 155.668 62.1068 155.351 61.562C155.047 61.0046 154.895 60.3585 154.895 59.6238V53.6H156.282V59.3387C156.282 60.1875 156.523 60.8589 157.004 61.353C157.486 61.8344 158.132 62.0751 158.943 62.0751C159.513 62.0751 160.019 61.9484 160.463 61.695C160.919 61.429 161.286 61.0616 161.565 60.5929V53.6H162.971V63.1202H161.565V62.0181C160.818 62.8795 159.823 63.3103 158.582 63.3103ZM165.362 63.1202V49.8185L166.768 49.4954V63.1202H165.362ZM172.169 63.2913C171.472 63.2913 170.858 63.1709 170.326 62.9302C169.806 62.6895 169.394 62.3538 169.09 61.9231C168.799 61.4924 168.653 60.992 168.653 60.4219C168.653 59.5224 168.995 58.813 169.679 58.2936C170.364 57.7742 171.288 57.5145 172.454 57.5145C173.48 57.5145 174.411 57.7299 175.247 58.1606V56.9064C175.247 56.1463 175.032 55.5762 174.601 55.1962C174.17 54.8035 173.543 54.6071 172.72 54.6071C172.251 54.6071 171.776 54.6768 171.295 54.8161C170.826 54.9428 170.307 55.1518 169.736 55.4432L169.204 54.3601C169.889 54.0307 170.522 53.79 171.105 53.638C171.687 53.486 172.27 53.4099 172.853 53.4099C174.056 53.4099 174.981 53.695 175.627 54.2651C176.286 54.8351 176.615 55.6522 176.615 56.7164V63.1202H175.247V62.1891C174.816 62.5565 174.341 62.8352 173.822 63.0252C173.315 63.2026 172.764 63.2913 172.169 63.2913ZM170.003 60.3839C170.003 60.9159 170.224 61.353 170.668 61.695C171.124 62.0244 171.706 62.1891 172.416 62.1891C172.986 62.1891 173.505 62.1004 173.974 61.9231C174.443 61.7457 174.867 61.467 175.247 61.087V59.3007C174.855 59.0347 174.436 58.8447 173.993 58.7307C173.55 58.604 173.049 58.5406 172.492 58.5406C171.732 58.5406 171.124 58.7117 170.668 59.0537C170.224 59.3831 170.003 59.8265 170.003 60.3839ZM178.965 63.1202V53.6H180.371V63.1202H178.965ZM179.668 51.7757C179.414 51.7757 179.193 51.6807 179.003 51.4907C178.813 51.3007 178.718 51.079 178.718 50.8256C178.718 50.5596 178.813 50.3379 179.003 50.1605C179.193 49.9705 179.414 49.8755 179.668 49.8755C179.934 49.8755 180.155 49.9705 180.333 50.1605C180.523 50.3379 180.618 50.5596 180.618 50.8256C180.618 51.079 180.523 51.3007 180.333 51.4907C180.155 51.6807 179.934 51.7757 179.668 51.7757ZM182.769 63.1202V53.6H184.175V54.9492C184.466 54.4551 184.834 54.075 185.277 53.809C185.733 53.5303 186.253 53.3909 186.835 53.3909C187.165 53.3909 187.462 53.4353 187.728 53.524V54.8161C187.564 54.7528 187.399 54.7085 187.234 54.6831C187.07 54.6578 186.905 54.6451 186.74 54.6451C186.158 54.6451 185.645 54.8161 185.201 55.1582C184.77 55.4876 184.428 55.969 184.175 56.6024V63.1202H182.769ZM193.136 63.2913C192.223 63.2913 191.394 63.0759 190.646 62.6452C189.911 62.2018 189.322 61.6064 188.879 60.8589C188.448 60.1115 188.233 59.2754 188.233 58.3506C188.233 57.4385 188.442 56.615 188.86 55.8803C189.278 55.1328 189.842 54.5438 190.551 54.113C191.261 53.6696 192.052 53.448 192.927 53.448C193.775 53.448 194.535 53.6696 195.207 54.113C195.891 54.5438 196.429 55.1328 196.822 55.8803C197.227 56.615 197.43 57.4385 197.43 58.3506V58.7877H189.62C189.696 59.4084 189.892 59.9658 190.209 60.4599C190.539 60.954 190.963 61.3467 191.482 61.638C192.002 61.9167 192.572 62.0561 193.193 62.0561C193.687 62.0561 194.168 61.9801 194.637 61.8281C195.106 61.676 195.498 61.4607 195.815 61.182L196.689 62.1131C196.157 62.5058 195.6 62.8035 195.017 63.0062C194.447 63.1962 193.82 63.2913 193.136 63.2913ZM189.658 57.6665H196.024C195.948 57.0964 195.758 56.5897 195.454 56.1463C195.163 55.6903 194.795 55.3355 194.352 55.0822C193.908 54.8161 193.421 54.6831 192.889 54.6831C192.344 54.6831 191.843 54.8098 191.387 55.0632C190.931 55.3165 190.551 55.6712 190.247 56.1273C189.943 56.5707 189.747 57.0838 189.658 57.6665ZM202.529 63.3103C201.744 63.3103 201.003 63.1836 200.306 62.9302C199.622 62.6642 199.026 62.2968 198.52 61.8281L199.375 60.9159C199.818 61.3213 200.306 61.638 200.838 61.8661C201.37 62.0814 201.915 62.1891 202.472 62.1891C203.232 62.1891 203.853 62.0308 204.334 61.7141C204.816 61.3973 205.057 60.9856 205.057 60.4789C205.057 60.0608 204.911 59.7378 204.619 59.5098C204.341 59.2691 203.897 59.1044 203.289 59.0157L201.636 58.7877C200.686 58.6483 199.977 58.3633 199.508 57.9325C199.052 57.5018 198.824 56.9191 198.824 56.1843C198.824 55.6522 198.976 55.1772 199.28 54.7591C199.584 54.3411 200.002 54.0117 200.534 53.771C201.079 53.5303 201.699 53.4099 202.396 53.4099C203.093 53.4099 203.745 53.5113 204.353 53.714C204.962 53.9167 205.557 54.2334 206.14 54.6641L205.399 55.6142C204.867 55.2469 204.347 54.9808 203.84 54.8161C203.346 54.6388 202.84 54.5501 202.32 54.5501C201.661 54.5501 201.129 54.6958 200.724 54.9872C200.319 55.2785 200.116 55.6586 200.116 56.1273C200.116 56.558 200.255 56.8874 200.534 57.1154C200.813 57.3308 201.262 57.4828 201.883 57.5715L203.536 57.7995C204.486 57.9262 205.196 58.2049 205.665 58.6356C206.146 59.0664 206.387 59.6554 206.387 60.4029C206.387 60.9476 206.216 61.4417 205.874 61.8851C205.532 62.3285 205.069 62.6768 204.486 62.9302C203.916 63.1836 203.264 63.3103 202.529 63.3103ZM215.054 63.2913C214.358 63.2913 213.743 63.1709 213.211 62.9302C212.692 62.6895 212.28 62.3538 211.976 61.9231C211.685 61.4924 211.539 60.992 211.539 60.4219C211.539 59.5224 211.881 58.813 212.565 58.2936C213.249 57.7742 214.174 57.5145 215.339 57.5145C216.366 57.5145 217.297 57.7299 218.133 58.1606V56.9064C218.133 56.1463 217.917 55.5762 217.487 55.1962C217.056 54.8035 216.429 54.6071 215.605 54.6071C215.137 54.6071 214.662 54.6768 214.18 54.8161C213.712 54.9428 213.192 55.1518 212.622 55.4432L212.09 54.3601C212.774 54.0307 213.408 53.79 213.99 53.638C214.573 53.486 215.156 53.4099 215.738 53.4099C216.942 53.4099 217.867 53.695 218.513 54.2651C219.172 54.8351 219.501 55.6522 219.501 56.7164V63.1202H218.133V62.1891C217.702 62.5565 217.227 62.8352 216.708 63.0252C216.201 63.2026 215.65 63.2913 215.054 63.2913ZM212.888 60.3839C212.888 60.9159 213.11 61.353 213.553 61.695C214.009 62.0244 214.592 62.1891 215.301 62.1891C215.871 62.1891 216.391 62.1004 216.86 61.9231C217.328 61.7457 217.753 61.467 218.133 61.087V59.3007C217.74 59.0347 217.322 58.8447 216.879 58.7307C216.435 58.604 215.935 58.5406 215.377 58.5406C214.617 58.5406 214.009 58.7117 213.553 59.0537C213.11 59.3831 212.888 59.8265 212.888 60.3839ZM215.396 51.7187L213.059 49.5144H214.883L216.632 51.7187H215.396ZM230.341 63.2913C229.442 63.2913 228.625 63.0759 227.89 62.6452C227.155 62.2018 226.572 61.6064 226.142 60.8589C225.711 60.1115 225.496 59.2754 225.496 58.3506C225.496 57.4258 225.711 56.596 226.142 55.8613C226.572 55.1138 227.155 54.5184 227.89 54.075C228.625 53.6316 229.442 53.4099 230.341 53.4099C231.038 53.4099 231.71 53.543 232.356 53.809C233.002 54.0624 233.572 54.4298 234.066 54.9111L233.173 55.9373C232.793 55.5319 232.356 55.2279 231.862 55.0252C231.38 54.8098 230.88 54.7021 230.36 54.7021C229.714 54.7021 229.125 54.8668 228.593 55.1962C228.074 55.5129 227.656 55.95 227.339 56.5074C227.035 57.0521 226.883 57.6665 226.883 58.3506C226.883 59.0347 227.035 59.6554 227.339 60.2129C227.656 60.7703 228.08 61.2137 228.612 61.543C229.144 61.8597 229.733 62.0181 230.379 62.0181C230.899 62.0181 231.386 61.9167 231.843 61.7141C232.311 61.5114 232.748 61.2137 233.154 60.8209L234.028 61.7711C233.521 62.2525 232.951 62.6262 232.318 62.8922C231.684 63.1582 231.025 63.2913 230.341 63.2913ZM235.675 63.1202V53.6H237.081V54.9492C237.373 54.4551 237.74 54.075 238.184 53.809C238.64 53.5303 239.159 53.3909 239.742 53.3909C240.071 53.3909 240.369 53.4353 240.635 53.524V54.8161C240.47 54.7528 240.306 54.7085 240.141 54.6831C239.976 54.6578 239.811 54.6451 239.647 54.6451C239.064 54.6451 238.551 54.8161 238.108 55.1582C237.677 55.4876 237.335 55.969 237.081 56.6024V63.1202H235.675ZM246.004 63.3103C245.105 63.3103 244.281 63.0949 243.534 62.6642C242.799 62.2208 242.216 61.6254 241.785 60.8779C241.355 60.1305 241.139 59.2944 241.139 58.3696C241.139 57.4448 241.355 56.6087 241.785 55.8613C242.216 55.1138 242.799 54.5248 243.534 54.094C244.281 53.6506 245.105 53.429 246.004 53.429C246.916 53.429 247.74 53.6506 248.474 54.094C249.209 54.5248 249.792 55.1138 250.223 55.8613C250.653 56.6087 250.869 57.4448 250.869 58.3696C250.869 59.2944 250.653 60.1305 250.223 60.8779C249.792 61.6254 249.209 62.2208 248.474 62.6642C247.74 63.0949 246.916 63.3103 246.004 63.3103ZM246.004 62.0561C246.65 62.0561 247.233 61.8914 247.752 61.562C248.284 61.2327 248.702 60.7893 249.006 60.2319C249.323 59.6744 249.481 59.0537 249.481 58.3696C249.481 57.6728 249.323 57.0521 249.006 56.5074C248.702 55.95 248.284 55.5066 247.752 55.1772C247.233 54.8478 246.65 54.6831 246.004 54.6831C245.358 54.6831 244.769 54.8478 244.237 55.1772C243.717 55.5066 243.299 55.95 242.983 56.5074C242.679 57.0521 242.527 57.6728 242.527 58.3696C242.527 59.0537 242.679 59.6744 242.983 60.2319C243.299 60.7893 243.717 61.2327 244.237 61.562C244.769 61.8914 245.358 62.0561 246.004 62.0561ZM260.233 66.9968V62.1321C259.397 62.8922 258.377 63.2723 257.174 63.2723C256.287 63.2723 255.476 63.0569 254.741 62.6262C254.019 62.1828 253.443 61.5937 253.012 60.8589C252.594 60.1115 252.385 59.2754 252.385 58.3506C252.385 57.4258 252.594 56.596 253.012 55.8613C253.443 55.1265 254.019 54.5438 254.741 54.113C255.476 53.6696 256.293 53.448 257.193 53.448C257.763 53.448 258.307 53.543 258.827 53.733C259.359 53.923 259.834 54.1891 260.252 54.5311V53.6H261.639V66.9968H260.233ZM257.307 62.0371C257.902 62.0371 258.453 61.9231 258.96 61.695C259.479 61.4544 259.904 61.125 260.233 60.7069V55.9943C259.904 55.5889 259.479 55.2722 258.96 55.0442C258.453 54.8035 257.902 54.6831 257.307 54.6831C256.648 54.6831 256.046 54.8415 255.501 55.1582C254.969 55.4749 254.545 55.9119 254.228 56.4694C253.924 57.0141 253.772 57.6348 253.772 58.3316C253.772 59.0284 253.924 59.6554 254.228 60.2129C254.545 60.7703 254.969 61.2137 255.501 61.543C256.046 61.8724 256.648 62.0371 257.307 62.0371ZM267.679 63.3103C266.957 63.3103 266.317 63.1582 265.76 62.8542C265.202 62.5375 264.765 62.1068 264.449 61.562C264.145 61.0046 263.993 60.3585 263.993 59.6238V53.6H265.38V59.3387C265.38 60.1875 265.62 60.8589 266.102 61.353C266.583 61.8344 267.229 62.0751 268.04 62.0751C268.61 62.0751 269.117 61.9484 269.56 61.695C270.016 61.429 270.384 61.0616 270.662 60.5929V53.6H272.069V63.1202H270.662V62.0181C269.915 62.8795 268.921 63.3103 267.679 63.3103ZM278.925 63.2913C278.013 63.2913 277.183 63.0759 276.436 62.6452C275.701 62.2018 275.112 61.6064 274.669 60.8589C274.238 60.1115 274.023 59.2754 274.023 58.3506C274.023 57.4385 274.232 56.615 274.65 55.8803C275.068 55.1328 275.632 54.5438 276.341 54.113C277.05 53.6696 277.842 53.448 278.716 53.448C279.565 53.448 280.325 53.6696 280.997 54.113C281.681 54.5438 282.219 55.1328 282.612 55.8803C283.017 56.615 283.22 57.4385 283.22 58.3506V58.7877H275.41C275.486 59.4084 275.682 59.9658 275.999 60.4599C276.328 60.954 276.753 61.3467 277.272 61.638C277.791 61.9167 278.362 62.0561 278.982 62.0561C279.476 62.0561 279.958 61.9801 280.426 61.8281C280.895 61.676 281.288 61.4607 281.605 61.182L282.479 62.1131C281.947 62.5058 281.389 62.8035 280.807 63.0062C280.236 63.1962 279.609 63.2913 278.925 63.2913ZM275.448 57.6665H281.814C281.738 57.0964 281.548 56.5897 281.244 56.1463C280.952 55.6903 280.585 55.3355 280.141 55.0822C279.698 54.8161 279.21 54.6831 278.678 54.6831C278.134 54.6831 277.633 54.8098 277.177 55.0632C276.721 55.3165 276.341 55.6712 276.037 56.1273C275.733 56.5707 275.537 57.0838 275.448 57.6665ZM285.186 63.1202V53.6H286.592V54.9492C286.883 54.4551 287.251 54.075 287.694 53.809C288.15 53.5303 288.67 53.3909 289.252 53.3909C289.582 53.3909 289.879 53.4353 290.145 53.524V54.8161C289.981 54.7528 289.816 54.7085 289.651 54.6831C289.487 54.6578 289.322 54.6451 289.157 54.6451C288.575 54.6451 288.061 54.8161 287.618 55.1582C287.187 55.4876 286.845 55.969 286.592 56.6024V63.1202H285.186Z" fill="#A78BFA"/>
</g>
</g>
</svg>
