<svg width="20" height="20" viewBox="0 0 20 20" fill="none" xmlns="http://www.w3.org/2000/svg">
<g id="pen-clip" clip-path="url(#clip0_1929_1148)">
<g id="Group">
<path id="Vector" d="M20.0002 2.88333C19.979 2.45879 19.8685 2.04347 19.6761 1.66443C19.4837 1.28538 19.2137 0.951095 18.8835 0.683334C17.6919 -0.291666 15.8752 -0.158333 14.7335 0.983334L13.3419 2.375C12.6585 1.91872 11.8552 1.67514 11.0335 1.675C9.91687 1.675 8.87521 2.10833 8.08354 2.89167L5.55854 5.41667C5.48139 5.49382 5.42019 5.58541 5.37843 5.68622C5.33668 5.78702 5.31519 5.89506 5.31519 6.00417C5.31519 6.11328 5.33668 6.22132 5.37843 6.32212C5.42019 6.42292 5.48139 6.51452 5.55854 6.59167C5.63569 6.66882 5.72728 6.73002 5.82809 6.77177C5.92889 6.81353 6.03693 6.83502 6.14604 6.83502C6.25515 6.83502 6.36319 6.81353 6.46399 6.77177C6.5648 6.73002 6.65639 6.66882 6.73354 6.59167L9.25854 4.06667C10.0002 3.325 11.1752 3.16667 12.1085 3.59167L1.72521 13.9917C1.15021 14.5667 0.83354 15.325 0.83354 16.1333C0.83354 16.6583 0.966873 17.1583 1.21687 17.6083L0.250207 18.575C0.133917 18.6914 0.0548365 18.8397 0.0230067 19.0011C-0.00882311 19.1625 0.0080341 19.3297 0.0714376 19.4816C0.134841 19.6334 0.24193 19.7629 0.379106 19.8537C0.516282 19.9446 0.677356 19.9926 0.841873 19.9917C1.05854 19.9917 1.26687 19.9083 1.43354 19.75L2.40021 18.7833C2.84187 19.0333 3.35021 19.1667 3.87521 19.1667C4.68354 19.1667 5.45021 18.85 6.01687 18.275L19.1085 5.175C19.7169 4.56667 20.0335 3.73333 19.9919 2.875L20.0002 2.88333ZM4.83354 17.1C4.31687 17.6167 3.41687 17.6167 2.90021 17.1C2.64187 16.8417 2.50021 16.5 2.50021 16.1333C2.50021 15.7667 2.64187 15.425 2.90021 15.1667L13.4002 4.675L15.3335 6.60833L4.83354 17.1ZM17.9335 4L16.5085 5.425L14.5752 3.49167L15.9085 2.15833C16.2169 1.85 16.6169 1.69167 17.0085 1.69167C17.3085 1.69167 17.5919 1.78333 17.8252 1.975C18.1335 2.225 18.3085 2.575 18.3335 2.96667C18.3502 3.35 18.2085 3.73333 17.9335 4Z" fill="#020617"/>
</g>
</g>
<defs>
<clipPath id="clip0_1929_1148">
<rect width="20" height="20" fill="white"/>
</clipPath>
</defs>
</svg>
