<svg width="20" height="20" viewBox="0 0 20 20" fill="none" xmlns="http://www.w3.org/2000/svg">
<g id="text-box-edit" clip-path="url(#clip0_1929_1135)">
<g id="Group">
<path id="Vector" d="M10.8333 16.6667C10.8333 16.8877 10.7455 17.0996 10.5893 17.2559C10.433 17.4122 10.221 17.5 10 17.5H4.16667C1.86917 17.5 0 15.6308 0 13.3333V6.66667C0 4.36917 1.86917 2.5 4.16667 2.5H10C10.221 2.5 10.433 2.5878 10.5893 2.74408C10.7455 2.90036 10.8333 3.11232 10.8333 3.33333C10.8333 3.55435 10.7455 3.76631 10.5893 3.92259C10.433 4.07887 10.221 4.16667 10 4.16667H4.16667C2.78833 4.16667 1.66667 5.28833 1.66667 6.66667V13.3333C1.66667 14.7117 2.78833 15.8333 4.16667 15.8333H10C10.221 15.8333 10.433 15.9211 10.5893 16.0774C10.7455 16.2337 10.8333 16.4457 10.8333 16.6667ZM6.66667 14.1667C6.88768 14.1667 7.09964 14.0789 7.25592 13.9226C7.4122 13.7663 7.5 13.5543 7.5 13.3333V7.5H9.16667C9.38768 7.5 9.59964 7.4122 9.75592 7.25592C9.9122 7.09964 10 6.88768 10 6.66667C10 6.44565 9.9122 6.23369 9.75592 6.07741C9.59964 5.92113 9.38768 5.83333 9.16667 5.83333H4.16667C3.94565 5.83333 3.73369 5.92113 3.57741 6.07741C3.42113 6.23369 3.33333 6.44565 3.33333 6.66667C3.33333 6.88768 3.42113 7.09964 3.57741 7.25592C3.73369 7.4122 3.94565 7.5 4.16667 7.5H5.83333V13.3333C5.83333 13.5543 5.92113 13.7663 6.07741 13.9226C6.23369 14.0789 6.44565 14.1667 6.66667 14.1667ZM15 18.3333C14.5408 18.3333 14.1667 17.96 14.1667 17.5V2.5C14.1667 2.04 14.5408 1.66667 15 1.66667C15.221 1.66667 15.433 1.57887 15.5893 1.42259C15.7455 1.26631 15.8333 1.05435 15.8333 0.833334C15.8333 0.612321 15.7455 0.400359 15.5893 0.244079C15.433 0.0877984 15.221 9.94376e-07 15 9.94376e-07C14.36 9.94376e-07 13.7758 0.241668 13.3333 0.638334C12.8758 0.226859 12.282 -0.000548742 11.6667 9.94376e-07C11.4457 9.94376e-07 11.2337 0.0877984 11.0774 0.244079C10.9211 0.400359 10.8333 0.612321 10.8333 0.833334C10.8333 1.05435 10.9211 1.26631 11.0774 1.42259C11.2337 1.57887 11.4457 1.66667 11.6667 1.66667C11.8877 1.66667 12.0996 1.75447 12.2559 1.91075C12.4122 2.06703 12.5 2.27899 12.5 2.5V17.5C12.5 17.96 12.1258 18.3333 11.6667 18.3333C11.4457 18.3333 11.2337 18.4211 11.0774 18.5774C10.9211 18.7337 10.8333 18.9457 10.8333 19.1667C10.8333 19.3877 10.9211 19.5996 11.0774 19.7559C11.2337 19.9122 11.4457 20 11.6667 20C12.3067 20 12.8908 19.7583 13.3333 19.3617C13.7909 19.7731 14.3846 20.0006 15 20C15.221 20 15.433 19.9122 15.5893 19.7559C15.7455 19.5996 15.8333 19.3877 15.8333 19.1667C15.8333 18.9457 15.7455 18.7337 15.5893 18.5774C15.433 18.4211 15.221 18.3333 15 18.3333ZM16.875 2.63083C16.769 2.60353 16.6586 2.59738 16.5502 2.61274C16.4417 2.62809 16.3374 2.66465 16.2431 2.72033C16.1488 2.776 16.0664 2.84971 16.0006 2.93723C15.9348 3.02475 15.8869 3.12438 15.8596 3.23042C15.8323 3.33646 15.8261 3.44684 15.8415 3.55526C15.8568 3.66368 15.8934 3.76801 15.9491 3.8623C16.0048 3.95659 16.0785 4.03899 16.166 4.1048C16.2535 4.17061 16.3531 4.21853 16.4592 4.24583C16.9961 4.38401 17.4717 4.6969 17.8112 5.1352C18.1507 5.57349 18.3346 6.11228 18.3342 6.66667V13.3333C18.3342 14.475 17.5633 15.47 16.4592 15.7542C16.2504 15.8142 16.0734 15.9533 15.9656 16.1418C15.8578 16.3304 15.8278 16.5535 15.8819 16.7638C15.9361 16.9741 16.0701 17.1551 16.2556 17.2681C16.441 17.3811 16.6632 17.4174 16.875 17.3692C17.7697 17.1383 18.5623 16.6165 19.128 15.8859C19.6937 15.1553 20.0005 14.2574 20 13.3333V6.66667C20.0003 5.74268 19.6935 4.8448 19.1278 4.11422C18.5621 3.38365 17.7696 2.86183 16.875 2.63083Z" fill="#020617"/>
</g>
</g>
<defs>
<clipPath id="clip0_1929_1135">
<rect width="20" height="20" fill="white"/>
</clipPath>
</defs>
</svg>
