<svg width="20" height="20" viewBox="0 0 20 20" fill="none" xmlns="http://www.w3.org/2000/svg">
<g id="trash" clip-path="url(#clip0_1929_1138)">
<g id="Group">
<path id="Vector" d="M17.4998 3.33333H14.9165C14.7231 2.39284 14.2114 1.54779 13.4675 0.940598C12.7237 0.333408 11.7933 0.0012121 10.8332 0L9.1665 0C8.20633 0.0012121 7.27594 0.333408 6.53213 0.940598C5.78832 1.54779 5.27658 2.39284 5.08317 3.33333H2.49984C2.27882 3.33333 2.06686 3.42113 1.91058 3.57741C1.7543 3.73369 1.6665 3.94565 1.6665 4.16667C1.6665 4.38768 1.7543 4.59964 1.91058 4.75592C2.06686 4.9122 2.27882 5 2.49984 5H3.33317V15.8333C3.33449 16.938 3.77391 17.997 4.55502 18.7782C5.33614 19.5593 6.39517 19.9987 7.49984 20H12.4998C13.6045 19.9987 14.6635 19.5593 15.4447 18.7782C16.2258 17.997 16.6652 16.938 16.6665 15.8333V5H17.4998C17.7209 5 17.9328 4.9122 18.0891 4.75592C18.2454 4.59964 18.3332 4.38768 18.3332 4.16667C18.3332 3.94565 18.2454 3.73369 18.0891 3.57741C17.9328 3.42113 17.7209 3.33333 17.4998 3.33333ZM9.1665 1.66667H10.8332C11.3501 1.6673 11.8541 1.82781 12.2762 2.1262C12.6983 2.42459 13.0177 2.84624 13.1907 3.33333H6.809C6.98199 2.84624 7.30142 2.42459 7.72349 2.1262C8.14557 1.82781 8.64961 1.6673 9.1665 1.66667ZM14.9998 15.8333C14.9998 16.4964 14.7364 17.1323 14.2676 17.6011C13.7988 18.0699 13.1629 18.3333 12.4998 18.3333H7.49984C6.8368 18.3333 6.20091 18.0699 5.73207 17.6011C5.26323 17.1323 4.99984 16.4964 4.99984 15.8333V5H14.9998V15.8333Z" fill="#020617"/>
<path id="Vector_2" d="M8.33333 15C8.55435 15 8.76631 14.9122 8.92259 14.7559C9.07887 14.5996 9.16667 14.3877 9.16667 14.1667V9.16666C9.16667 8.94565 9.07887 8.73369 8.92259 8.57741C8.76631 8.42113 8.55435 8.33333 8.33333 8.33333C8.11232 8.33333 7.90036 8.42113 7.74408 8.57741C7.5878 8.73369 7.5 8.94565 7.5 9.16666V14.1667C7.5 14.3877 7.5878 14.5996 7.74408 14.7559C7.90036 14.9122 8.11232 15 8.33333 15ZM11.6667 15C11.8877 15 12.0996 14.9122 12.2559 14.7559C12.4122 14.5996 12.5 14.3877 12.5 14.1667V9.16666C12.5 8.94565 12.4122 8.73369 12.2559 8.57741C12.0996 8.42113 11.8877 8.33333 11.6667 8.33333C11.4457 8.33333 11.2337 8.42113 11.0774 8.57741C10.9211 8.73369 10.8333 8.94565 10.8333 9.16666V14.1667C10.8333 14.3877 10.9211 14.5996 11.0774 14.7559C11.2337 14.9122 11.4457 15 11.6667 15Z" fill="#020617"/>
</g>
</g>
<defs>
<clipPath id="clip0_1929_1138">
<rect width="20" height="20" fill="white"/>
</clipPath>
</defs>
</svg>
