<svg width="20" height="20" viewBox="0 0 20 20" fill="none" xmlns="http://www.w3.org/2000/svg">
<g id="unlock" clip-path="url(#clip0_1929_1144)">
<g id="Group">
<path id="Vector" d="M14.1665 6.66666H5.83317V5.83333C5.83291 4.9095 6.13969 4.01178 6.70527 3.28131C7.27084 2.55084 8.06315 2.02904 8.95761 1.79796C9.85208 1.56688 10.798 1.63961 11.6466 2.00473C12.4952 2.36985 13.1984 3.00664 13.6457 3.81499C13.6988 3.9107 13.7703 3.99499 13.856 4.06308C13.9417 4.13116 14.04 4.1817 14.1452 4.2118C14.2504 4.2419 14.3606 4.25098 14.4693 4.23852C14.5781 4.22605 14.6833 4.19229 14.779 4.13916C14.8747 4.08603 14.959 4.01457 15.0271 3.92886C15.0952 3.84315 15.1457 3.74487 15.1758 3.63963C15.2059 3.53439 15.215 3.42425 15.2025 3.31551C15.1901 3.20676 15.1563 3.10153 15.1032 3.00583C14.4767 1.87442 13.4921 0.983261 12.304 0.472422C11.116 -0.0384158 9.79181 -0.139964 8.53973 0.183741C7.28765 0.507445 6.17864 1.23805 5.38703 2.2607C4.59541 3.28336 4.16607 4.54008 4.1665 5.83333V7.01999C3.4243 7.34392 2.79258 7.8771 2.34859 8.55434C1.90459 9.23158 1.66757 10.0235 1.6665 10.8333V15.8333C1.66783 16.938 2.10724 17.997 2.88835 18.7781C3.66947 19.5593 4.72851 19.9987 5.83317 20H14.1665C15.2712 19.9987 16.3302 19.5593 17.1113 18.7781C17.8924 17.997 18.3318 16.938 18.3332 15.8333V10.8333C18.3318 9.72867 17.8924 8.66963 17.1113 7.88851C16.3302 7.1074 15.2712 6.66798 14.1665 6.66666ZM16.6665 15.8333C16.6665 16.4964 16.4031 17.1323 15.9343 17.6011C15.4654 18.0699 14.8295 18.3333 14.1665 18.3333H5.83317C5.17013 18.3333 4.53424 18.0699 4.0654 17.6011C3.59656 17.1323 3.33317 16.4964 3.33317 15.8333V10.8333C3.33317 10.1703 3.59656 9.5344 4.0654 9.06556C4.53424 8.59672 5.17013 8.33333 5.83317 8.33333H14.1665C14.8295 8.33333 15.4654 8.59672 15.9343 9.06556C16.4031 9.5344 16.6665 10.1703 16.6665 10.8333V15.8333Z" fill="#020617"/>
<path id="Vector_2" d="M9.99984 11.6667C9.77882 11.6667 9.56686 11.7545 9.41058 11.9107C9.2543 12.067 9.1665 12.279 9.1665 12.5V14.1667C9.1665 14.3877 9.2543 14.5996 9.41058 14.7559C9.56686 14.9122 9.77882 15 9.99984 15C10.2209 15 10.4328 14.9122 10.5891 14.7559C10.7454 14.5996 10.8332 14.3877 10.8332 14.1667V12.5C10.8332 12.279 10.7454 12.067 10.5891 11.9107C10.4328 11.7545 10.2209 11.6667 9.99984 11.6667Z" fill="#020617"/>
</g>
</g>
<defs>
<clipPath id="clip0_1929_1144">
<rect width="20" height="20" fill="white"/>
</clipPath>
</defs>
</svg>
